<?xml version="1.0" encoding="utf-8"?>
<!-- Generator: Adobe Adobe Illustrator 24.2.0, SVG Export Plug-In . SVG Version: 6.00 Build 0)  -->
<svg version="1.1" xmlns="http://www.w3.org/2000/svg" xmlns:xlink="http://www.w3.org/1999/xlink" x="0px" y="0px" width="1896px"
	 height="1810px" viewBox="0 0 1896 1810" style="enable-background:new 0 0 1896 1810;" xml:space="preserve">
<style type="text/css">
	.st0{fill:#FFFFFF;stroke:#FFFFFF;stroke-miterlimit:10;}
	.st1{opacity:0.702;}
	.st2{fill:url(#SVGID_1_);}
	.st3{fill:none;stroke:#000000;stroke-width:146;stroke-miterlimit:10;}
	.st4{display:none;}
	.st5{display:inline;}
	.st6{display:inline;clip-path:url(#SVGID_3_);}
	.st7{fill:#FFFFFF;}
	.st8{fill:url(#SVGID_4_);stroke:#000000;stroke-miterlimit:10;}
	.st9{fill:none;stroke:#000000;stroke-width:67;stroke-miterlimit:10;}
	.st10{fill:none;stroke:#000000;stroke-width:59;stroke-miterlimit:10;}
	.st11{fill:none;stroke:#000000;stroke-width:58;stroke-miterlimit:10;}
</style>
<g id="Layer_7">
	<circle class="st0" cx="960.62" cy="905" r="898.46"/>
</g>
<g id="Layer_1">
	<g id="Top_of_Fire">
		<g>
			<g>
				<g class="st1">
					<g>
						<linearGradient id="SVGID_1_" gradientUnits="userSpaceOnUse" x1="975.2355" y1="363.9218" x2="1074.0941" y2="363.9218">
							<stop  offset="0" style="stop-color:#F9991D"/>
							<stop  offset="1" style="stop-color:#F7322C"/>
						</linearGradient>
						<path class="st2" d="M1023.45,210.96c23.06,65.77-40.66,116.73-46.82,152.9c-9.65,64.78,32.43,126.78,71.56,153.03
							C1024.43,437.16,1134.69,287.89,1023.45,210.96z"/>
					</g>
				</g>
			</g>
		</g>
	</g>
	<circle id="Circle_1_" class="st3" cx="960.62" cy="910.89" r="782.72"/>
	<g id="Bottom_Words" class="st4">
		<g>
			<defs>
				<rect id="SVGID_2_" x="82" y="36" width="1727.99" height="1728"/>
			</defs>
			<clipPath id="SVGID_3_" class="st5">
				<use xlink:href="#SVGID_2_"  style="overflow:visible;"/>
			</clipPath>
			<g class="st6">
				<path class="st7" d="M946,1764c-116.58,0-229.75-22.86-336.33-67.95c-102.89-43.52-195.29-105.8-274.59-185.11
					c-79.31-79.31-141.59-171.7-185.11-274.59c-45.09-106.6-67.94-219.75-67.94-336.34c0-116.58,22.86-229.75,67.94-336.33
					c43.52-102.89,105.8-195.29,185.11-274.59c79.3-79.31,171.7-141.59,274.6-185.11c106.59-45.09,219.75-67.95,336.33-67.95
					c116.59,0,229.75,22.86,336.34,67.95c102.89,43.52,195.28,105.8,274.59,185.12c79.3,79.3,141.58,171.7,185.11,274.59
					c45.09,106.59,67.94,219.75,67.94,336.33c0,116.59-22.86,229.75-67.94,336.34c-43.52,102.89-105.8,195.28-185.11,274.59
					c-79.31,79.3-171.7,141.58-274.59,185.11C1175.76,1741.14,1062.61,1764,946,1764z M946,261.45
					c-352.11,0-638.57,286.47-638.57,638.56c0,352.11,286.46,638.57,638.57,638.57s638.57-286.47,638.57-638.57
					S1298.12,261.45,946,261.45z"/>
			</g>
		</g>
		<g class="st5">
			<g transform="translate(30.282432, 384.881005)">
				<g>
					<path class="st7" d="M99.77,625.2c-0.91-7.53,0.33-13.18,3.7-16.94c3.37-3.77,9.28-6.14,17.74-7.12l8.22-0.99l1.97,16.26
						l-10.49,1.25c-4.19,0.47-6.12,2.03-5.79,4.66c0.15,1.46,0.7,2.43,1.66,2.92c0.97,0.47,2.51,0.59,4.59,0.34
						c2.78-0.33,5.01-0.91,6.71-1.74c1.72-0.83,3.12-1.82,4.2-2.96c1.1-1.14,2.76-3.15,4.98-6.03l6.4-7.96
						c4.8-6.16,10.57-9.63,17.28-10.38c7.17-0.83,12.84,0.15,17.01,2.96c4.17,2.78,6.62,7.29,7.37,13.53
						c0.9,7.45-0.46,13.05-4.09,16.79c-3.63,3.73-9.74,6.1-18.32,7.09l-2.04-16.86l5.79-0.76c1.13-0.13,1.98-0.53,2.55-1.21
						c0.56-0.66,0.78-1.54,0.66-2.65c-0.15-1.29-0.64-2.22-1.43-2.77c-0.77-0.56-1.79-0.76-3.05-0.61c-2.73,0.3-5.39,2.16-7.98,5.57
						l-8.25,10.72c-1.93,2.5-3.81,4.6-5.63,6.33c-1.83,1.74-4.04,3.22-6.63,4.43c-2.6,1.21-5.77,2.03-9.49,2.46
						c-8.31,0.96-14.79,0.19-19.44-2.31C103.31,636.72,100.59,632.04,99.77,625.2z"/>
				</g>
			</g>
		</g>
		<g class="st5">
			<g transform="translate(34.17618, 413.832978)">
				<g>
					<path class="st7" d="M103.75,644.45l84.71-9.25l5.9,27.63l-81.31,24.93l-3.36-15.5l13.19-3.87l-2.12-9.89l-13.62,1.82
						L103.75,644.45z M134.3,656.99l1.58,7.35l41.43-12.28l-0.15-0.76L134.3,656.99z"/>
				</g>
			</g>
		</g>
		<g class="st5">
			<g transform="translate(40.898205, 443.181283)">
				<g>
					<path class="st7" d="M114.39,688.4l81.2-24.06l4.9,15.99L133.1,700.3l5.05,16.45l-13.81,4.09L114.39,688.4z"/>
				</g>
			</g>
		</g>
		<g class="st5">
			<g transform="translate(48.963473, 468.435921)">
				<g>
					<path class="st7" d="M126.51,724.28l78.96-30.47l12.42,31.07l-15.27,5.91l-6.09-15.27l-15.31,5.91l5.86,14.67l-14.89,5.72
						l-5.86-14.67l-18.13,7.01l6.52,16.26l-15.35,5.91L126.51,724.28z"/>
				</g>
			</g>
		</g>
		<g class="st5">
			<g transform="translate(59.28016, 493.582839)">
				<g>
					<path class="st7" d="M150.22,778.12c-3.42-6.8-4.19-12.53-2.31-17.2c1.9-4.67,6.67-8.87,14.31-12.58l7.44-3.6l7.37,14.7
						l-9.49,4.59c-3.78,1.84-5.07,3.95-3.86,6.33c0.67,1.34,1.52,2.07,2.58,2.2c1.05,0.12,2.53-0.27,4.44-1.17
						c2.47-1.21,4.37-2.5,5.71-3.87c1.33-1.36,2.32-2.77,2.97-4.21c0.64-1.42,1.52-3.85,2.66-7.28l3.28-9.59
						c2.47-7.43,6.72-12.6,12.77-15.54c6.48-3.13,12.15-4.05,17.01-2.77c4.86,1.27,8.72,4.72,11.57,10.35
						c3.37,6.73,3.98,12.45,1.85,17.17c-2.14,4.72-7.09,8.96-14.85,12.73L206,753.15l5.21-2.61c1-0.5,1.66-1.16,1.97-1.97
						c0.33-0.83,0.24-1.75-0.27-2.77c-0.57-1.14-1.33-1.84-2.28-2.12c-0.93-0.27-1.96-0.13-3.09,0.42
						c-2.47,1.19-4.35,3.82-5.63,7.88l-4.09,12.81c-0.98,3-2.03,5.62-3.16,7.84c-1.14,2.22-2.72,4.33-4.74,6.33
						c-2.03,2.02-4.73,3.84-8.1,5.46c-7.51,3.64-13.88,5.04-19.09,4.21C157.49,787.78,153.33,784.28,150.22,778.12z"/>
				</g>
			</g>
		</g>
		<g class="st5">
			<g transform="translate(82.886506, 536.179432)">
				<g>
					<path class="st7" d="M200.86,820.76c-2.7-3.84-3.58-7.66-2.62-11.48c0.95-3.81,3.45-7.09,7.52-9.81
						c4.09-2.75,8.1-3.87,12.03-3.33c3.95,0.53,7.29,2.72,9.99,6.56c2.64,3.85,3.49,7.65,2.55,11.44c-0.93,3.79-3.43,7.06-7.52,9.81
						c-4.07,2.73-8.08,3.84-12.03,3.33C206.81,826.76,203.5,824.59,200.86,820.76z"/>
				</g>
			</g>
		</g>
		<g class="st5">
			<g transform="translate(109.530854, 571.655506)">
				<g>
					<path class="st7" d="M229.38,885.53c-4.17-4.47-6.08-9.35-5.75-14.63c0.36-5.28,3.03-10.17,8.02-14.67l28.85-25.96
						c6.22-5.58,12.04-8.57,17.47-8.98c5.45-0.4,10.61,2,15.47,7.2c4.21,4.55,6.34,9.35,6.36,14.4c0.05,5.03-2.31,9.69-7.1,13.98
						L282,866.54l-11.42-12.24l9.22-8.3c1.79-1.61,2.84-2.94,3.12-3.98c0.28-1.03-0.06-2.08-1-3.15c-1.03-1.08-2.14-1.49-3.32-1.21
						c-1.16,0.28-2.49,1.09-3.97,2.43l-31.4,28.27c-1.65,1.46-2.62,2.78-2.93,3.94c-0.31,1.16-0.02,2.22,0.89,3.18
						c1.75,1.91,4.2,1.46,7.37-1.36l11.3-10.16l11.57,12.35l-11.84,10.61C249.11,896.35,239.05,895.88,229.38,885.53z"/>
				</g>
			</g>
		</g>
		<g class="st5">
			<g transform="translate(129.933669, 593.176148)">
				<g>
					<path class="st7" d="M246.81,901.16l57.47-61.28l12.54,11.33l-47.71,50.85l12.84,11.63l-9.76,10.42L246.81,901.16z"/>
				</g>
			</g>
		</g>
		<g class="st5">
			<g transform="translate(149.713118, 610.832011)">
				<g>
					<path class="st7" d="M276.05,926.09l52.27-65.63L355.09,881l-10.11,12.69l-13.15-10.08l-10.14,12.73l12.61,9.66l-9.87,12.39
						l-12.61-9.66l-11.96,15.04l14,10.76l-10.18,12.77L276.05,926.09z"/>
				</g>
			</g>
		</g>
		<g class="st5">
			<g transform="translate(171.388343, 627.273075)">
				<g>
					<path class="st7" d="M306.19,948.05l53.15-65.44l24.11,15.39l-39.5,74.2l-13.54-8.64l6.52-11.9l-8.6-5.53l-8.29,10.76
						L306.19,948.05z M336.82,935.62l6.44,4.13l20.37-37.48l-0.62-0.42L336.82,935.62z"/>
				</g>
			</g>
		</g>
		<g class="st5">
			<g transform="translate(196.967624, 643.346984)">
				<g>
					<path class="st7" d="M345.84,971.87l39.54-73.71l15.47,8l-12,38.84l18.9-35.24l14.5,7.5l-39.54,73.71l-14.66-7.58l12.23-40.81
						l-19.79,36.91L345.84,971.87z"/>
				</g>
			</g>
		</g>
		<g class="st5">
			<g transform="translate(224.1942, 657.013983)">
				<g>
					<path class="st7" d="M385.25,990.82L419,914.38l15.04,6.4l-33.75,76.43L385.25,990.82z"/>
				</g>
			</g>
		</g>
		<g class="st5">
			<g transform="translate(242.283923, 664.651295)">
				<g>
					<path class="st7" d="M412.62,1001.74l27.77-78.75l16.51,5.61l-5.9,40.21l13.27-37.67l15.51,5.27l-27.77,78.75l-15.66-5.34
						l5.86-42.14l-13.92,39.41L412.62,1001.74z"/>
				</g>
			</g>
		</g>
		<g class="st5">
			<g transform="translate(271.480816, 674.233867)">
				<g>
					<path class="st7" d="M472.36,1019.91c-5.94-1.44-9.86-4.57-11.73-9.36c-1.88-4.82-1.76-11.41,0.35-19.74l8.76-34.86
						c1.85-7.47,4.95-12.71,9.3-15.73c4.37-3,9.91-3.69,16.62-2.08c5.42,1.32,9.37,3.41,11.84,6.29c2.47,2.86,3.76,6.47,3.9,10.84
						c0.13,4.35-0.61,9.72-2.2,16.11l-16.12-3.9l1.81-7.24c0.48-1.94,0.59-3.51,0.31-4.7c-0.29-1.18-1.14-1.95-2.55-2.31
						c-3.11-0.76-5.17,0.87-6.17,4.89l-9.84,39.18c-0.62,2.45-0.76,4.39-0.42,5.8c0.33,1.39,1.29,2.29,2.89,2.69
						c1.59,0.38,2.85,0.03,3.78-1.06c0.95-1.11,1.74-2.89,2.35-5.34l2.93-11.6l-4.4-1.06l3.47-13.95l20.13,4.89l-11.8,47.1
						l-6.63-1.63l-1.08-7.43C483.67,1019.99,478.5,1021.39,472.36,1019.91z"/>
				</g>
			</g>
		</g>
		<g class="st5">
			<g transform="translate(300.892029, 680.96484)">
				<g>
					<path class="st7" d="M518.68,1028.1c-7.64-1.17-12.86-3.85-15.66-8.03c-2.81-4.22-3.57-10.46-2.28-18.72l1.23-8.07l16.47,2.5
						l-1.58,10.27c-0.65,4.09,0.37,6.33,3.05,6.71c1.51,0.23,2.63-0.04,3.36-0.8c0.71-0.78,1.23-2.2,1.54-4.24
						c0.41-2.7,0.43-4.96,0.08-6.78c-0.37-1.84-0.96-3.43-1.81-4.77c-0.83-1.34-2.34-3.46-4.55-6.37l-6.09-8.19
						c-4.78-6.19-6.66-12.55-5.63-19.1c1.08-7.02,3.55-12.13,7.41-15.31c3.86-3.18,8.96-4.29,15.31-3.33
						c7.53,1.14,12.65,3.92,15.35,8.34c2.7,4.42,3.4,10.83,2.12,19.21l-17.09-2.54l0.73-5.68c0.17-1.11,0.01-2.02-0.5-2.73
						c-0.49-0.73-1.3-1.18-2.43-1.36c-1.29-0.2-2.31,0-3.09,0.61c-0.75,0.61-1.22,1.53-1.39,2.77c-0.41,2.65,0.69,5.67,3.32,9.02
						l8.33,10.65c1.95,2.53,3.52,4.89,4.71,7.09c1.21,2.2,2.05,4.69,2.55,7.47c0.51,2.76,0.48,5.95-0.08,9.59
						c-1.26,8.14-3.74,14.06-7.44,17.77C530.93,1027.78,525.62,1029.13,518.68,1028.1z"/>
				</g>
			</g>
		</g>
		<g class="st5">
			<g transform="translate(349.323305, 686.077717)">
				<g>
					<path class="st7" d="M583.91,1012.16c-4.76-0.05-8.47-1.53-11.11-4.47c-2.62-2.96-3.9-6.86-3.82-11.71
						c0.05-4.85,1.41-8.72,4.09-11.6c2.7-2.88,6.42-4.29,11.19-4.24c4.73,0.06,8.41,1.55,11.03,4.51c2.64,2.94,3.94,6.82,3.9,11.67
						c-0.08,4.85-1.47,8.72-4.17,11.6C592.33,1010.79,588.63,1012.21,583.91,1012.16z"/>
				</g>
			</g>
		</g>
		<g class="st5">
			<g transform="translate(393.668954, 684.615912)">
				<g>
					<path class="st7" d="M624.12,945.88l25.84-3.3c4.11-0.53,7.42-0.02,9.91,1.52c2.49,1.52,4.34,3.88,5.55,7.09
						c1.23,3.21,2.18,7.37,2.85,12.47c0.64,4.7,0.51,8.44-0.39,11.22c-0.88,2.79-2.78,4.89-5.71,6.33c2.62,0.21,4.63,1.21,6.02,3.03
						s2.31,4.43,2.78,7.84l3.97,31.3l-16.43,2.12l-4.32-32.32c-0.31-2.29-0.96-3.71-1.97-4.24c-0.98-0.53-2.68-0.63-5.09-0.3
						l5.01,37.71l-17.05,2.16L624.12,945.88z M649.3,973.77c2.36-0.3,3.21-2.97,2.55-8c-0.29-2.17-0.6-3.79-0.93-4.85
						c-0.34-1.06-0.8-1.76-1.39-2.12c-0.6-0.35-1.37-0.46-2.31-0.34l-3.97,0.49l2.04,15.31L649.3,973.77z"/>
				</g>
			</g>
		</g>
		<g class="st5">
			<g transform="translate(423.13828, 680.236552)">
				<g>
					<path class="st7" d="M678.35,1021.94l-18.21-81.4l33.17-7.16l3.51,15.73l-16.32,3.52l3.55,15.8l15.66-3.37l3.43,15.39
						l-15.66,3.37l4.17,18.64l17.4-3.75l3.55,15.84L678.35,1021.94z"/>
				</g>
			</g>
		</g>
		<g class="st5">
			<g transform="translate(449.605634, 674.002928)">
				<g>
					<path class="st7" d="M691.92,933.22l21.37-6.56c6.48-1.97,11.75-1.33,15.81,1.93c4.06,3.24,7.35,8.81,9.87,16.71
						c2.49,7.91,3.14,14.25,1.97,19.02c-1.16,4.76-4.92,8.1-11.26,10.04l-6.6,2.01l9.99,31.49l-15.93,4.89L691.92,933.22z
						 M719.5,961.75c1.93-0.61,3.24-1.4,3.93-2.39c0.69-0.99,0.96-2.18,0.81-3.6c-0.14-1.41-0.6-3.35-1.39-5.84
						c-1.06-3.33-2.19-5.63-3.39-6.9c-1.22-1.26-2.95-1.53-5.21-0.83l-1.81,0.53l6.09,19.29L719.5,961.75z"/>
				</g>
			</g>
		</g>
		<g class="st5">
			<g transform="translate(477.782009, 664.727952)">
				<g>
					<path class="st7" d="M756.29,1000.07L731.45,920l26.54-10.8l39.92,73.97l-14.89,6.06l-6.33-12.05l-9.45,3.87l4.32,12.85
						L756.29,1000.07z M763.23,968.27l7.1-2.88l-19.98-37.74l-0.69,0.3L763.23,968.27z"/>
				</g>
			</g>
		</g>
		<g class="st5">
			<g transform="translate(505.20871, 652.740817)">
				<g>
					<path class="st7" d="M797.88,982.23l-38.19-74.39l14.62-7.24l38.19,74.39L797.88,982.23z"/>
				</g>
			</g>
		</g>
		<g class="st5">
			<g transform="translate(522.626787, 643.72266)">
				<g>
					<path class="st7" d="M780.3,897.41l22.33-13.19c3.55-2.09,6.79-2.93,9.72-2.5c2.91,0.41,5.57,1.85,7.98,4.32
						c2.41,2.45,4.98,5.89,7.68,10.31c2.47,4.05,3.87,7.52,4.2,10.42c0.33,2.91-0.56,5.59-2.66,8.03c2.49-0.85,4.74-0.72,6.75,0.42
						c2.03,1.14,3.94,3.17,5.75,6.1l16.39,27.13l-14.19,8.41l-17.09-27.93c-1.23-1.99-2.43-3.03-3.59-3.11
						c-1.14-0.09-2.74,0.45-4.82,1.67l19.98,32.59L824,968.8L780.3,897.41z M814.74,913.02c2.03-1.18,1.73-3.94-0.93-8.26
						c-1.16-1.89-2.1-3.26-2.85-4.09c-0.74-0.85-1.45-1.34-2.12-1.44c-0.67-0.09-1.43,0.1-2.28,0.61l-3.39,2.01l8.1,13.23
						L814.74,913.02z"/>
				</g>
			</g>
		</g>
		<g class="st5">
			<g transform="translate(547.942441, 627.919551)">
				<g>
					<path class="st7" d="M877.77,934.91c-6.25,4.47-11.88,6.2-16.89,5.15c-4.99-1.03-9.99-4.93-15-11.67l-4.9-6.59l13.42-9.66
						l6.25,8.37c2.49,3.36,4.83,4.26,7.02,2.69c1.23-0.85,1.82-1.8,1.77-2.84c-0.06-1.06-0.71-2.43-1.97-4.09
						c-1.62-2.2-3.23-3.81-4.82-4.85c-1.6-1.06-3.16-1.78-4.71-2.16c-1.54-0.4-4.14-0.85-7.79-1.36l-10.18-1.55
						c-7.81-1.11-13.71-4.34-17.7-9.7c-4.24-5.73-6.14-11.07-5.71-15.99c0.44-4.93,3.24-9.25,8.41-12.96
						c6.17-4.41,11.82-5.99,16.93-4.7c5.09,1.27,10.18,5.32,15.27,12.16l-13.96,10l-3.55-4.55c-0.67-0.91-1.44-1.44-2.31-1.59
						c-0.87-0.17-1.77,0.07-2.7,0.72c-1.05,0.76-1.63,1.62-1.74,2.58c-0.1,0.94,0.22,1.91,0.96,2.92c1.62,2.18,4.57,3.55,8.83,4.13
						l13.58,1.78c3.18,0.41,5.98,0.98,8.37,1.71c2.41,0.74,4.79,1.91,7.14,3.52c2.36,1.62,4.67,3.92,6.9,6.9
						c4.91,6.65,7.39,12.57,7.44,17.77C886.21,926.22,883.42,930.85,877.77,934.91z"/>
				</g>
			</g>
		</g>
		<g class="st5">
			<g transform="translate(578.595301, 603.982012)">
				<g>
					<path class="st7" d="M902.73,888.4c-3.52,3.16-7.26,4.55-11.22,4.17c-3.95-0.38-7.61-2.36-10.95-5.95
						c-3.34-3.56-5.02-7.29-5.05-11.22c-0.05-3.91,1.69-7.45,5.21-10.61c3.47-3.13,7.19-4.51,11.15-4.13
						c3.96,0.38,7.62,2.35,10.95,5.91c3.34,3.59,5.02,7.34,5.05,11.25C907.9,881.75,906.2,885.28,902.73,888.4z"/>
				</g>
			</g>
		</g>
		<g class="st5">
			<g transform="translate(603.135983, 580.017693)">
				<g>
					<path class="st7" d="M941.04,877.74L878.02,822l10.95-11.97L952,865.77L941.04,877.74z"/>
				</g>
			</g>
		</g>
		<g class="st5">
			<g transform="translate(616.130468, 565.296819)">
				<g>
					<path class="st7" d="M960.4,856l-67.15-50.93l10.68-13.57l36.91,18.27l-32.13-24.37l10.03-12.73l67.15,50.93l-10.14,12.88
						l-38.84-18.87l33.64,25.5L960.4,856z"/>
				</g>
			</g>
		</g>
		<g class="st5">
			<g transform="translate(634.477897, 540.678005)">
				<g>
					<path class="st7" d="M998.57,804.43c-4.15,6.39-8.74,10-13.77,10.84c-5.06,0.81-11.19-1.03-18.36-5.53l-6.98-4.36l8.95-13.79
						l8.91,5.57c3.55,2.23,6.05,2.22,7.48-0.04c0.82-1.23,1.01-2.33,0.58-3.3c-0.4-0.96-1.5-1.99-3.28-3.11
						c-2.33-1.46-4.45-2.4-6.33-2.8c-1.9-0.4-3.64-0.5-5.21-0.3c-1.56,0.18-4.14,0.68-7.71,1.52l-10.07,2.2
						c-7.71,1.77-14.41,0.87-20.1-2.69c-6.09-3.81-9.85-8.08-11.26-12.81c-1.41-4.75-0.41-9.78,3.01-15.08
						c4.12-6.34,8.78-9.82,14-10.46c5.23-0.65,11.48,1.29,18.75,5.84l-9.3,14.32l-4.94-2.99c-0.95-0.58-1.86-0.78-2.74-0.61
						c-0.9,0.15-1.66,0.7-2.28,1.63c-0.69,1.09-0.91,2.1-0.66,3.03c0.26,0.91,0.93,1.71,2.01,2.39c2.31,1.44,5.57,1.65,9.76,0.61
						l13.27-3.18c3.14-0.73,5.97-1.18,8.49-1.36c2.5-0.2,5.15,0.04,7.95,0.72c2.81,0.66,5.79,1.97,8.95,3.94
						c7.04,4.42,11.55,9.05,13.54,13.87C1003.24,793.31,1002.35,798.62,998.57,804.43z"/>
				</g>
			</g>
		</g>
		<g class="st5">
			<g transform="translate(649.688937, 515.845093)">
				<g>
					<path class="st7" d="M1012.54,778.81l-60.71-31.26l-4.67,8.75l-14.43-7.43l17.24-32.29l14.43,7.43l-4.67,8.75l60.71,31.26
						L1012.54,778.81z"/>
				</g>
			</g>
		</g>
		<g class="st5">
			<g transform="translate(661.677584, 492.157717)">
				<g>
					<path class="st7" d="M1025.59,753.35l-75.06-39.68l11.11-26.03l81.39,24.9l-6.25,14.59l-13.11-4.17l-3.97,9.28l12.27,6.14
						L1025.59,753.35z M1007.7,725.95l2.97-6.97l-41.2-12.96l-0.31,0.68L1007.7,725.95z"/>
				</g>
			</g>
		</g>
		<g class="st5">
			<g transform="translate(672.830072, 464.191644)">
				<g>
					<path class="st7" d="M1042.55,711.33l-80.73-25.54l5.21-15.92l67,21.18l5.36-16.33l13.73,4.36L1042.55,711.33z"/>
				</g>
			</g>
		</g>
		<g class="st5">
			<g transform="translate(680.550889, 438.84235)">
				<g>
					<path class="st7" d="M1053.58,675.13l-82.55-19.14l3.93-16.29l68.5,15.88l4.01-16.71l14.04,3.26L1053.58,675.13z"/>
				</g>
			</g>
		</g>
		<g class="st5">
			<g transform="translate(686.267007, 412.902052)">
				<g>
					<path class="st7" d="M1065.41,618.6c-1.14,7.48-3.84,12.61-8.1,15.39c-4.26,2.79-10.61,3.56-19.02,2.35l-8.22-1.21l2.43-16.22
						l10.45,1.52c4.17,0.63,6.46-0.36,6.87-2.99c0.23-1.46-0.05-2.55-0.85-3.26c-0.79-0.7-2.24-1.21-4.32-1.52
						c-2.75-0.4-5.05-0.42-6.9-0.04c-1.87,0.38-3.49,0.98-4.86,1.78c-1.36,0.81-3.51,2.31-6.44,4.51l-8.29,6.03
						c-6.3,4.73-12.78,6.59-19.44,5.61c-7.15-1.03-12.35-3.43-15.62-7.2c-3.26-3.79-4.44-8.79-3.51-15.01
						c1.14-7.43,3.96-12.48,8.49-15.16c4.5-2.67,11.02-3.39,19.56-2.16l-2.55,16.79l-5.79-0.72c-1.13-0.15-2.05,0.03-2.78,0.53
						c-0.74,0.51-1.2,1.31-1.35,2.39c-0.2,1.29,0,2.3,0.62,3.03c0.62,0.74,1.56,1.2,2.82,1.4c2.7,0.38,5.77-0.74,9.18-3.37
						l10.8-8.22c2.55-1.91,4.94-3.46,7.17-4.62c2.22-1.18,4.73-2.03,7.56-2.54c2.83-0.53,6.09-0.51,9.8,0.04
						c8.25,1.21,14.29,3.63,18.09,7.24C1065.03,606.57,1066.43,611.78,1065.41,618.6z"/>
				</g>
			</g>
		</g>
	</g>
	<g id="Fire" class="st1">
		<g>
			<linearGradient id="SVGID_4_" gradientUnits="userSpaceOnUse" x1="983.3618" y1="984.7549" x2="983.3618" y2="297.7252">
				<stop  offset="0" style="stop-color:#FC2912"/>
				<stop  offset="0.0951" style="stop-color:#FC2D13"/>
				<stop  offset="0.2407" style="stop-color:#FD3A14"/>
				<stop  offset="0.4175" style="stop-color:#FC5A16"/>
				<stop  offset="0.5245" style="stop-color:#FC7119"/>
				<stop  offset="1" style="stop-color:#FA9A1D"/>
			</linearGradient>
			<path class="st8" d="M1183.8,765.66c-43.56,60.93-46.46-11.6-31.94-49.32c29.04-69.63,45.07-114.55,13.13-187.08
				c-17.42-40.62-56.69-79.85-94.45-103.06c23.23,34.81,30.56,78.33,20.45,114.08c-23.58,82.17-34.04,70.1-62.73,106.66
				c14.05-21.24,7.43-44.11,7.43-65.46c-2.9-37.71-29.04-62.44-49.37-91.45c-46.46-66.73-59.46-117.91-35.07-193.35
				c-64.81,27.97-93.39,115.83-78.18,167.23c5.81,31.91,22.3,61.63,29.28,92.84c11.61,52.23,1.74,77.18-6.05,96.21
				c-3.83-76.83-80.25-85.54-75.5-174.55c-98.73,85.18,69.69,238.27-23.23,333.66c-73.06,25.65-7.65-146-42.04-155.17
				c-98.04,166.19-64.35,298.73,11.62,322.64c5.68,1.73,11.61,3.01,17.76,3.48h0.11c4.07,0.34,8.26,0.47,12.55,0.23
				c-9.64-44.91,3.26-86.69,40.65-116.06c-16.61,74.74,32.76,107.35,70.51,40.62c20.33-37.72-13.82-80.42,25.32-127.66
				c17.42,63.83,72.6,52.23,87.12,176.98c69.58-72.65,42.4-132.76,40.78-136.25c31.48,13.24,81.18,89.94,46.33,168.17
				c15.8-6.61,29.04-14.04,42.87-22.86c3.13-1.97,6.27-4.06,9.41-6.16c0.24,3.48,0.24,7.08-0.11,10.91
				c-0.47,6.96-1.74,14.62-3.95,22.28c17.89-11.84,29.51-17.87,53.42-36.1c34.85-28.44,54.24-65.57,59.6-100.04
				c13-84.13-36.37-132.07-36.37-193C1179.51,704.73,1204.12,733.75,1183.8,765.66z M734.45,783.46
				c0.38,19.65,10.85,43.28,28.05,54.16C745.3,826.74,734.83,803.11,734.45,783.46z M831.27,602.61
				C831.27,602.61,831.27,602.61,831.27,602.61c-0.15,1.66-0.04,3.3,0.29,4.94C831.23,605.91,831.12,604.26,831.27,602.61z
				 M827.53,621.19c-0.06,21.22,11.12,46.46,20.03,72.18C838.64,667.65,827.47,642.41,827.53,621.19z M848.99,697.6
				c1.18,3.52,2.3,7.04,3.33,10.56C851.29,704.64,850.17,701.12,848.99,697.6z M854.85,828.91c0.58,0.93,1.16,1.86,1.62,2.9
				C856.01,830.77,855.43,829.84,854.85,828.91z M832.8,611.6c7.46,18.1,38.98,34.84,48.8,50.21
				C871.78,646.44,840.26,629.7,832.8,611.6z M948.36,524.26c1.89,14.37,10.91,25.85,20.83,37.02
				C959.26,550.12,950.25,538.64,948.36,524.26z M993.32,690.68c11.77-28.2,12.73-62.54,3.47-90.98c-1.24-3.6-2.89-7.03-4.84-10.33
				c1.95,3.3,3.61,6.73,4.84,10.33C1006.05,628.13,1005.09,662.48,993.32,690.68z M1113.87,620.01
				C1113.87,620.01,1113.87,620.02,1113.87,620.01c-5.52,10.79-12.99,20.76-21.85,29.7
				C1100.88,640.78,1108.36,630.81,1113.87,620.01z M1097.5,745.7c-1.3-27.27,17.41-56.43,23.05-84.05
				C1114.92,689.27,1096.2,718.44,1097.5,745.7z M1180.22,824.25c-2.59,0.92-5.14,1.62-7.65,2.12
				C1175.08,825.86,1177.63,825.16,1180.22,824.25z M1168.14,963.7c51.24-50.25,73.17-110.85,49.35-184.12
				C1241.31,852.85,1219.37,913.45,1168.14,963.7z"/>
		</g>
	</g>
	<g id="Back_2_new">
		<g>
			<g transform="translate(40.456697, 272.841238)">
				<g>
					<path d="M341.59,281.45c11.29-0.28,20.93-0.49,28.94-0.63c8-0.13,14.44-0.21,19.32-0.21c15.18,0,27.13,3.18,35.83,9.53
						c8.72,6.33,13.08,15.84,13.08,28.52c0,6.14-1.75,11.85-5.23,17.14c-3.49,5.3-7.94,9.13-13.38,11.5
						c3.48,1.12,6.79,2.9,9.91,5.35c3.14,2.43,5.83,5.29,8.06,8.57c2.22,3.27,4,6.81,5.32,10.63c1.33,3.82,2,7.76,2,11.8
						c0,14.36-4.57,24.99-13.71,31.89c-9.12,6.89-22.04,10.33-38.76,10.33c-5.16,0-11.99-0.07-20.49-0.21
						c-8.48-0.14-18.78-0.35-30.91-0.63l-1.46-1.46V282.91L341.59,281.45z M390.48,361.72h-17.32v40.73c3.6-0.13,7.66-0.13,12.18,0
						c4.54,0.14,8.76-0.21,12.66-1.05c3.9-0.84,7.17-2.85,9.82-6.06c2.64-3.2,3.97-7.66,3.97-13.38c0-5.43-1.72-10.16-5.14-14.18
						C403.26,363.74,397.86,361.72,390.48,361.72z M373.16,304.23v33.65h14.81c6.69,0,11.38-1.63,14.09-4.9
						c2.72-3.28,4.09-7.29,4.09-12.03c0-4.73-1.4-8.67-4.18-11.8c-2.79-3.14-7.46-4.72-14.01-4.72c-3.21,0-6.02,0-8.45,0
						C377.08,304.44,374.96,304.37,373.16,304.23z"/>
				</g>
			</g>
		</g>
		<g>
			<g transform="translate(107.700831, 272.841238)">
				<g>
					<path d="M436.1,394.71c-3.76,0-6.55-0.07-8.36-0.21l-8.99,30.31c-3.34,0.84-8.02,1.25-14.01,1.25c-6.69,0-12.12-0.77-16.3-2.3
						l-1.05-1.67l45.99-140.23c5.41-0.84,11.74-1.25,18.99-1.25c8.22,0,14.77,0.49,19.65,1.46l45.15,140.44
						c-4.88,2.64-10.38,3.97-16.51,3.97c-7.25,0-12.33-1.25-15.26-3.76s-5.43-7.32-7.53-14.42l-3.97-13.8
						c-1.81,0.14-4.53,0.21-8.15,0.21H436.1z M435.47,368.41l8.33-0.21h15.26c0.69,0,1.91,0.04,3.64,0.12
						c1.75,0.06,3.05,0.09,3.88,0.09l-3.55-12.96c-3.34-11.71-7.18-26.05-11.5-43.06h-1.25c-1.12,5.99-4.46,19.31-10.03,39.93
						L435.47,368.41z"/>
				</g>
			</g>
		</g>
		<g>
			<g transform="translate(177.459782, 272.841238)">
				<g>
					<path d="M539.56,338.72v-2.51c0-20.62-7.67-30.94-22.99-30.94c-8.78,0-15.13,4.02-19.02,12.03c-3.88,8-5.82,19.81-5.82,35.42
						c0,15.45,2.43,26.94,7.29,34.46c4.88,7.53,11.98,11.29,21.32,11.29c4.88,0,10.27-1.14,16.19-3.43
						c5.93-2.31,12.38-5.97,19.35-10.99c3.48,2.37,6.72,5.61,9.71,9.74c3,4.11,4.85,8.03,5.55,11.8c-3.21,3.07-6.94,5.96-11.2,8.69
						c-4.24,2.71-8.84,5.04-13.8,6.99c-4.94,1.96-10.09,3.51-15.47,4.69c-5.36,1.19-10.75,1.79-16.19,1.79
						c-10.71,0-19.76-2.05-27.14-6.15c-7.39-4.12-13.35-9.59-17.89-16.42c-4.52-6.82-7.79-14.69-9.82-23.59
						c-2.02-8.91-3.02-18.19-3.02-27.8c0-12.54,1.56-23.51,4.69-32.91c3.14-9.41,7.39-17.26,12.75-23.53
						c5.38-6.27,11.68-10.97,18.9-14.09c7.24-3.14,14.98-4.72,23.2-4.72c8.36,0,15.95,1.12,22.78,3.34
						c6.82,2.23,12.64,5.3,17.44,9.2c4.82,3.9,8.51,8.5,11.08,13.8c2.58,5.3,3.88,11.01,3.88,17.14c0,12.41-6.35,18.6-19.02,18.6
						C548.55,340.6,544.29,339.98,539.56,338.72z"/>
				</g>
			</g>
		</g>
		<g>
			<g transform="translate(244.047874, 272.841238)">
				<g>
					<path d="M638.07,416.45c-4.74,6.69-12.12,10.03-22.16,10.03c-5.72,0-10-1.46-12.87-4.39c-2.85-2.93-5.32-7.87-7.41-14.84
						l-7.94-24.46c-2.09-6.55-4.6-11.21-7.53-13.98c-2.93-2.78-6.9-4.18-11.91-4.18c-1.67,0-4.73,0.14-9.17,0.42v59.55
						c-4.32,0.84-9.9,1.25-16.72,1.25c-6.83,0-12.41-0.42-16.72-1.25V281.87c4.32-0.84,9.89-1.25,16.72-1.25
						c6.82,0,12.4,0.42,16.72,1.25v55.19l5.41-0.21c2.51,0,4.32-0.45,5.43-1.34c1.11-0.91,2.43-2.84,3.97-5.76l19.86-37.42
						c2.09-4.32,4.32-7.35,6.69-9.08c2.37-1.75,6.06-2.63,11.08-2.63c5.57,0,12.05,0.35,19.44,1.05l1.88,2.3l-25.5,48.08
						c-3.21,6.41-7.11,11.5-11.71,15.26c6.55,1.4,11.45,4.05,14.72,7.94c3.28,3.9,6.04,9.13,8.27,15.68l8.57,25.89
						c1.11,3.21,1.95,5.58,2.51,7.11c0.55,1.54,1.95,4.11,4.18,7.73C634.86,413.04,636.25,414.65,638.07,416.45z"/>
				</g>
			</g>
		</g>
		<g>
			<g transform="translate(336.002865, 272.841238)">
				<g>
					<path d="M695.51,397.01c0,9.48-1.43,16.48-4.3,21.02c-2.85,4.52-8.32,6.78-16.39,6.78h-62.26c-2.65-2.51-5.2-5.67-7.64-9.5
						c-2.43-3.84-3.64-7.29-3.64-10.36c-0.14-5.43,1.84-11.18,5.94-17.23c4.12-6.07,10.15-12.72,18.1-19.95l22.55-20.49
						c7.38-6.69,11.08-13.3,11.08-19.86c0-4.32-1.3-7.87-3.88-10.66c-2.57-2.78-6.14-4.18-10.72-4.18c-4.46,0-8.29,1.78-11.5,5.35
						c-3.21,3.55-5.51,7.9-6.9,13.05c-2.09,0-4.29-0.21-6.6-0.63c-2.29-0.42-4.52-1.05-6.69-1.88c-2.15-0.84-4.11-1.84-5.85-3.02
						c-1.73-1.19-3.09-2.55-4.06-4.09c1.39-5.15,3.48-9.89,6.27-14.21c2.78-4.32,6.13-8.04,10.03-11.17
						c3.9-3.14,8.39-5.58,13.47-7.32c5.09-1.75,10.7-2.63,16.81-2.63c5.99,0,11.59,1.02,16.81,3.05c5.23,2.02,9.76,4.87,13.59,8.57
						c3.84,3.69,6.84,8.14,8.99,13.38c2.17,5.22,3.26,10.96,3.26,17.23c-0.14,8.23-2.3,15.54-6.48,21.95
						c-4.18,6.41-10.32,12.96-18.4,19.65l-15.05,12.51c-9.6,8.23-15.23,13.87-16.9,16.93c5.99-0.69,11.59-1.25,16.81-1.67
						c5.21-0.42,10.19-0.63,14.93-0.63H695.51z"/>
				</g>
			</g>
		</g>
		<g>
			<g transform="translate(418.007931, 272.841238)">
				<g>
					<path d="M796.57,280.4l1.46,1.46v142.11c-5.58,1.25-12.17,1.88-19.77,1.88c-7.58,0-14.3-0.42-20.16-1.25l-32.82-74.8
						c-3.88-8.5-7.85-18.32-11.89-29.47l-0.63,0.21c1.67,20.35,2.51,41.17,2.51,62.47v41.6c-4.32,0.84-9.55,1.25-15.68,1.25
						c-6.14,0-11.29-0.42-15.47-1.25V282.49c5.29-1.25,11.66-1.88,19.11-1.88c7.47,0,14.11,0.42,19.95,1.25l32.4,74.63
						c5.85,13.78,10.17,24.36,12.96,31.74l0.84-0.42c-1.67-19.35-2.51-39.9-2.51-61.64v-25.5c0-7.24,1.46-12.43,4.39-15.56
						c2.93-3.14,7.66-4.72,14.21-4.72H796.57z"/>
				</g>
			</g>
		</g>
		<g>
			<g transform="translate(494.108619, 272.841238)">
				<g>
					<path d="M786.3,382.38l-0.21,15.05v0.21c6.39-0.28,11.53-0.42,15.44-0.42h48.5c0,5.16-0.21,9.13-0.63,11.91
						c-1.67,10.74-8.78,16.1-21.32,16.1h-55.57c-5.99,0-10.71-1.74-14.12-5.23c-3.4-3.48-5.11-8.22-5.11-14.21V283.33l1.46-1.46
						h90.06c0.84,4.05,1.25,8.44,1.25,13.17c0,4.74-0.98,9.69-2.93,14.84h-57.04l0.21,15.05v14.63c3.6-0.13,8.33-0.21,14.18-0.21
						h31.98c1.25,3.9,1.88,8.36,1.88,13.38s-0.63,9.62-1.88,13.8H786.3V382.38z"/>
				</g>
			</g>
		</g>
		<g>
			<g transform="translate(556.760457, 272.841238)">
				<g>
					<path d="M822.49,410.81l-24.67-127.06c6.69-2.51,12.61-3.76,17.77-3.76c5.85,0,10.1,1.3,12.75,3.88
						c2.64,2.57,4.52,7.41,5.64,14.51l8.78,53.93c2.64,16.15,4.31,27.43,4.99,33.83c0.69,6.41,1.14,9.76,1.34,10.03
						c0.22,0.28,0.67,0.42,1.37,0.42l17.35-112.01c5.15-0.97,12.33-1.46,21.53-1.46c9.2,0,16.3,0.49,21.32,1.46l15.89,109.3
						c0.13,1.25,0.37,2.02,0.72,2.3c0.36,0.28,0.88,0.42,1.58,0.42c1.25-13.09,3.34-27.93,6.27-44.49l11.71-70.24
						c4.02-0.84,8.67-1.25,13.98-1.25c6.41,0,12.05,0.77,16.93,2.3l1.46,1.88L951.61,424.4c-9.04,0.97-17.53,1.46-25.47,1.46
						c-7.94,0-13.59-0.98-16.93-2.93c-3.34-1.95-5.51-5.99-6.48-12.12l-7.11-45.33c-2.51-16.44-4.53-32.61-6.06-48.5h-1.46
						c-1.54,13.52-3.84,29.68-6.9,48.5l-9.41,58.92c-9.48,0.97-18.08,1.46-25.8,1.46c-7.73,0-13.26-0.98-16.6-2.93
						C826.04,420.99,823.74,416.95,822.49,410.81z"/>
				</g>
			</g>
		</g>
		<g>
			<g transform="translate(256.076067, 362.135704)">
				<g>
					<path d="M538.06,362.81c11.29-0.28,20.93-0.49,28.94-0.63c8-0.13,14.44-0.21,19.32-0.21c15.18,0,27.13,3.18,35.83,9.53
						c8.72,6.33,13.08,15.84,13.08,28.52c0,6.14-1.75,11.85-5.23,17.14c-3.49,5.3-7.94,9.13-13.38,11.5
						c3.48,1.12,6.79,2.9,9.91,5.35c3.14,2.43,5.83,5.29,8.06,8.57c2.22,3.27,4,6.81,5.32,10.63c1.33,3.82,2,7.76,2,11.8
						c0,14.36-4.57,24.99-13.71,31.89c-9.12,6.89-22.04,10.33-38.76,10.33c-5.16,0-11.99-0.07-20.49-0.21
						c-8.48-0.14-18.78-0.35-30.91-0.63l-1.46-1.46V364.27L538.06,362.81z M586.94,443.08h-17.32v40.73c3.6-0.13,7.66-0.13,12.18,0
						c4.54,0.14,8.76-0.21,12.66-1.05c3.9-0.84,7.17-2.85,9.82-6.06c2.64-3.2,3.97-7.66,3.97-13.38c0-5.43-1.72-10.16-5.14-14.18
						C599.72,445.1,594.33,443.08,586.94,443.08z M569.62,385.6v33.65h14.81c6.69,0,11.38-1.63,14.09-4.9
						c2.72-3.28,4.09-7.29,4.09-12.03c0-4.73-1.4-8.67-4.18-11.8c-2.79-3.14-7.46-4.72-14.01-4.72c-3.21,0-6.02,0-8.45,0
						C573.55,385.8,571.43,385.74,569.62,385.6z"/>
				</g>
			</g>
		</g>
		<g>
			<g transform="translate(323.320201, 362.135704)">
				<g>
					<path d="M599.33,362.81c11.29-0.28,20.93-0.49,28.94-0.63c8-0.13,14.44-0.21,19.32-0.21c15.18,0,27.13,3.18,35.83,9.53
						c8.72,6.33,13.08,15.84,13.08,28.52c0,6.14-1.75,11.85-5.23,17.14c-3.49,5.3-7.94,9.13-13.38,11.5
						c3.48,1.12,6.79,2.9,9.91,5.35c3.14,2.43,5.83,5.29,8.06,8.57c2.22,3.27,4,6.81,5.32,10.63c1.33,3.82,2,7.76,2,11.8
						c0,14.36-4.57,24.99-13.71,31.89c-9.12,6.89-22.04,10.33-38.76,10.33c-5.16,0-11.99-0.07-20.49-0.21
						c-8.48-0.14-18.78-0.35-30.91-0.63l-1.46-1.46V364.27L599.33,362.81z M648.21,443.08h-17.32v40.73c3.6-0.13,7.66-0.13,12.18,0
						c4.54,0.14,8.76-0.21,12.66-1.05c3.9-0.84,7.17-2.85,9.82-6.06c2.64-3.2,3.97-7.66,3.97-13.38c0-5.43-1.72-10.16-5.14-14.18
						C660.99,445.1,655.6,443.08,648.21,443.08z M630.89,385.6v33.65h14.81c6.69,0,11.38-1.63,14.09-4.9
						c2.72-3.28,4.09-7.29,4.09-12.03c0-4.73-1.4-8.67-4.18-11.8c-2.79-3.14-7.46-4.72-14.01-4.72c-3.21,0-6.02,0-8.45,0
						C634.82,385.8,632.7,385.74,630.89,385.6z"/>
				</g>
			</g>
		</g>
		<g>
			<g transform="translate(390.564334, 362.135704)">
				<g>
					<path d="M734.15,527.71l-21.32-18.6c-9.62,0-18.26-1.63-25.92-4.9c-7.64-3.28-14.15-8.09-19.53-14.42
						c-5.36-6.35-9.47-14.11-12.33-23.29c-2.85-9.2-4.27-19.78-4.27-31.77c0-11.84,1.35-22.37,4.06-31.56
						c2.72-9.2,6.76-17,12.12-23.41c5.38-6.41,11.92-11.29,19.65-14.63c7.72-3.34,16.6-5.02,26.64-5.02s18.95,1.72,26.76,5.14
						c7.8,3.4,14.35,8.32,19.65,14.72c5.29,6.41,9.29,14.21,12,23.41c2.72,9.2,4.09,19.65,4.09,31.36c0,7.94-0.67,15.43-2,22.46
						c-1.31,7.03-3.27,13.37-5.85,19.02c-2.57,5.64-5.7,10.41-9.41,14.3c-3.69,3.9-7.9,6.69-12.63,8.36l5.43,3.76
						c9.47,6.55,18.25,9.82,26.34,9.82c-0.28,7.11-2.41,12.85-6.39,17.23c-3.96,4.4-9.5,6.6-16.6,6.6
						C747.81,536.28,740.97,533.42,734.15,527.71z M713.25,385.8c-18.8,0-28.19,16.3-28.19,48.91c0,32.45,9.39,48.68,28.19,48.68
						c18.53,0,27.8-16.22,27.8-48.68C741.05,402.11,731.78,385.8,713.25,385.8z"/>
				</g>
			</g>
		</g>
	</g>
	<g id="Grill">
		<path class="st9" d="M548.55,958.91c0,129.79,76.15,431.21,425.09,431.21c279.05,0,399.04-288.71,399.04-431.17"/>
		<g id="Layer_3">
			<path class="st9" d="M520.87,991.94h879.5H520.87z"/>
		</g>
		<g id="Layer_5">
			<path class="st10" d="M629.99,1560.44c66.59-108.57,134.2-220.2,134.2-220.2"/>
		</g>
		<g id="Layer_6">
			<line class="st11" x1="1188.14" y1="1353.81" x2="1311.77" y2="1560.44"/>
		</g>
	</g>
</g>
</svg>
