<svg xmlns="http://www.w3.org/2000/svg" xmlns:xlink="http://www.w3.org/1999/xlink" width="500" zoomAndPan="magnify" viewBox="0 0 375 374.999991" height="500" preserveAspectRatio="xMidYMid meet" version="1.0"><defs><g/><clipPath id="2b7a39b711"><path d="M 236 51 L 332 51 L 332 165 L 236 165 Z M 236 51 " clip-rule="nonzero"/></clipPath><clipPath id="c9accb07a7"><path d="M 355.75 173.507812 L 230.246094 163.929688 L 243.460938 -9.175781 L 368.960938 0.402344 Z M 355.75 173.507812 " clip-rule="nonzero"/></clipPath><clipPath id="ac97d37d7d"><path d="M 355.75 173.507812 L 230.246094 163.929688 L 243.460938 -9.175781 L 368.960938 0.402344 Z M 355.75 173.507812 " clip-rule="nonzero"/></clipPath><clipPath id="18e66835b1"><path d="M 313 1 L 366 1 L 366 71 L 313 71 Z M 313 1 " clip-rule="nonzero"/></clipPath><clipPath id="54af0e72f5"><path d="M 355.75 173.507812 L 230.246094 163.929688 L 243.460938 -9.175781 L 368.960938 0.402344 Z M 355.75 173.507812 " clip-rule="nonzero"/></clipPath><clipPath id="8ed152a658"><path d="M 355.75 173.507812 L 230.246094 163.929688 L 243.460938 -9.175781 L 368.960938 0.402344 Z M 355.75 173.507812 " clip-rule="nonzero"/></clipPath><clipPath id="e36c8320c5"><path d="M 328 1 L 366 1 L 366 46 L 328 46 Z M 328 1 " clip-rule="nonzero"/></clipPath><clipPath id="81013c613b"><path d="M 355.75 173.507812 L 230.246094 163.929688 L 243.460938 -9.175781 L 368.960938 0.402344 Z M 355.75 173.507812 " clip-rule="nonzero"/></clipPath><clipPath id="b2351457a9"><path d="M 355.75 173.507812 L 230.246094 163.929688 L 243.460938 -9.175781 L 368.960938 0.402344 Z M 355.75 173.507812 " clip-rule="nonzero"/></clipPath><clipPath id="ec7282c7d0"><path d="M 360 7 L 366 7 L 366 22 L 360 22 Z M 360 7 " clip-rule="nonzero"/></clipPath><clipPath id="23d3a5295e"><path d="M 355.75 173.507812 L 230.246094 163.929688 L 243.460938 -9.175781 L 368.960938 0.402344 Z M 355.75 173.507812 " clip-rule="nonzero"/></clipPath><clipPath id="3469454964"><path d="M 355.75 173.507812 L 230.246094 163.929688 L 243.460938 -9.175781 L 368.960938 0.402344 Z M 355.75 173.507812 " clip-rule="nonzero"/></clipPath><clipPath id="02d2ecd24f"><path d="M 355 26 L 364 26 L 364 44 L 355 44 Z M 355 26 " clip-rule="nonzero"/></clipPath><clipPath id="99ea419464"><path d="M 355.75 173.507812 L 230.246094 163.929688 L 243.460938 -9.175781 L 368.960938 0.402344 Z M 355.75 173.507812 " clip-rule="nonzero"/></clipPath><clipPath id="827ff934c5"><path d="M 355.75 173.507812 L 230.246094 163.929688 L 243.460938 -9.175781 L 368.960938 0.402344 Z M 355.75 173.507812 " clip-rule="nonzero"/></clipPath><clipPath id="3d608d7d07"><path d="M 271 107 L 296 107 L 296 135 L 271 135 Z M 271 107 " clip-rule="nonzero"/></clipPath><clipPath id="27e46a2e0e"><path d="M 355.75 173.507812 L 230.246094 163.929688 L 243.460938 -9.175781 L 368.960938 0.402344 Z M 355.75 173.507812 " clip-rule="nonzero"/></clipPath><clipPath id="6af834b000"><path d="M 355.75 173.507812 L 230.246094 163.929688 L 243.460938 -9.175781 L 368.960938 0.402344 Z M 355.75 173.507812 " clip-rule="nonzero"/></clipPath><clipPath id="37567c005d"><path d="M 261 135 L 272 135 L 272 146 L 261 146 Z M 261 135 " clip-rule="nonzero"/></clipPath><clipPath id="16ceb35312"><path d="M 355.75 173.507812 L 230.246094 163.929688 L 243.460938 -9.175781 L 368.960938 0.402344 Z M 355.75 173.507812 " clip-rule="nonzero"/></clipPath><clipPath id="2f9f235916"><path d="M 355.75 173.507812 L 230.246094 163.929688 L 243.460938 -9.175781 L 368.960938 0.402344 Z M 355.75 173.507812 " clip-rule="nonzero"/></clipPath><clipPath id="c28f86506b"><path d="M 353 24 L 366 24 L 366 48 L 353 48 Z M 353 24 " clip-rule="nonzero"/></clipPath><clipPath id="e2e9c10c0a"><path d="M 360.820312 23.367188 L 367.550781 26.277344 L 357.757812 48.941406 L 351.027344 46.035156 Z M 360.820312 23.367188 " clip-rule="nonzero"/></clipPath><clipPath id="4a66f21fa9"><path d="M 364.070312 24.773438 C 362.273438 23.996094 358.628906 28.441406 355.925781 34.703125 C 353.21875 40.960938 352.484375 46.664062 354.277344 47.441406 C 356.074219 48.214844 359.71875 43.769531 362.425781 37.511719 C 365.128906 31.25 365.863281 25.546875 364.070312 24.773438 " clip-rule="nonzero"/></clipPath><clipPath id="79376e7566"><path d="M 358 4 L 366 4 L 366 35 L 358 35 Z M 358 4 " clip-rule="nonzero"/></clipPath><clipPath id="0a30d27611"><path d="M 358.378906 5.039062 L 365.734375 4.824219 L 366.59375 34.238281 L 359.242188 34.453125 Z M 358.378906 5.039062 " clip-rule="nonzero"/></clipPath><clipPath id="1b31c31cb8"><path d="M 361.929688 4.9375 C 359.96875 4.992188 358.570312 11.574219 358.808594 19.632812 C 359.042969 27.691406 360.824219 34.179688 362.785156 34.121094 C 364.746094 34.0625 366.144531 27.484375 365.910156 19.425781 C 365.671875 11.367188 363.890625 4.878906 361.929688 4.9375 " clip-rule="nonzero"/></clipPath></defs><g clip-path="url(#2b7a39b711)"><g clip-path="url(#c9accb07a7)"><g clip-path="url(#ac97d37d7d)"><path fill="#f18c73" d="M 316.199219 92.082031 C 316.199219 92.082031 249.140625 164.875 239.707031 164.664062 C 230.730469 158.375 243.699219 148.503906 244.9375 145.628906 C 246.175781 142.753906 307.1875 50.148438 319.289062 51.578125 C 331.394531 53.015625 341.167969 65.6875 316.199219 92.082031 Z M 316.199219 92.082031 " fill-opacity="1" fill-rule="nonzero"/></g></g></g><g clip-path="url(#18e66835b1)"><g clip-path="url(#54af0e72f5)"><g clip-path="url(#8ed152a658)"><path fill="#fdebde" d="M 328.066406 27.160156 C 331.53125 24.496094 335.3125 22.519531 339.039062 21.546875 C 364.828125 14.832031 357.03125 3.292969 357.925781 1.472656 C 358.816406 -0.34375 368.34375 8.308594 364.859375 24.277344 C 363.671875 29.730469 361.320312 37.773438 357.691406 45.652344 C 350.703125 60.828125 338.960938 75.378906 321.628906 69.617188 C 316.15625 65.390625 313.679688 60.160156 313.347656 54.710938 C 312.726562 44.621094 319.441406 33.78125 328.066406 27.160156 Z M 328.066406 27.160156 " fill-opacity="1" fill-rule="nonzero"/></g></g></g><g clip-path="url(#e36c8320c5)"><g clip-path="url(#81013c613b)"><g clip-path="url(#b2351457a9)"><path fill="#004aad" d="M 328.066406 27.160156 C 331.53125 24.496094 335.3125 22.519531 339.039062 21.546875 C 364.828125 14.832031 357.03125 3.292969 357.925781 1.472656 C 358.816406 -0.34375 368.34375 8.308594 364.859375 24.277344 C 363.671875 29.730469 361.320312 37.773438 357.691406 45.652344 C 354.109375 46.039062 352.519531 41.78125 355.074219 38.355469 C 358.667969 33.539062 360.214844 17.699219 358.242188 21.285156 C 356.277344 24.867188 357.132812 29.175781 351.410156 26.363281 C 345.6875 23.550781 347.25 29.78125 345.511719 32.535156 C 343.777344 35.285156 334.957031 37.496094 338.339844 29.949219 C 340.792969 24.484375 333.289062 27.683594 328.066406 27.160156 Z M 328.066406 27.160156 " fill-opacity="1" fill-rule="nonzero"/></g></g></g><g clip-path="url(#ec7282c7d0)"><g clip-path="url(#23d3a5295e)"><g clip-path="url(#3469454964)"><path stroke-linecap="round" transform="matrix(-0.863692, -0.0659225, 0.0659643, -0.86424, 471.125542, 280.891738)" fill="none" stroke-linejoin="round" d="M 146.595797 291.763388 C 146.595797 291.763388 146.891065 298.353433 149.089756 303.040059 " stroke="#ed6c71" stroke-width="4.556" stroke-opacity="1" stroke-miterlimit="10"/></g></g></g><g clip-path="url(#02d2ecd24f)"><g clip-path="url(#99ea419464)"><g clip-path="url(#827ff934c5)"><path stroke-linecap="round" transform="matrix(-0.863692, -0.0659225, 0.0659643, -0.86424, 471.125542, 280.891738)" fill="none" stroke-linejoin="round" d="M 147.844429 280.635148 C 147.844429 280.635148 149.671107 267.60063 151.721788 265.256593 " stroke="#ed6c71" stroke-width="4.556" stroke-opacity="1" stroke-miterlimit="10"/></g></g></g><g clip-path="url(#3d608d7d07)"><g clip-path="url(#27e46a2e0e)"><g clip-path="url(#6af834b000)"><path stroke-linecap="round" transform="matrix(-0.863692, -0.0659225, 0.0659643, -0.86424, 471.125542, 280.891738)" fill="none" stroke-linejoin="round" d="M 218.942325 181.926394 C 218.942325 181.926394 236.90814 156.54194 240.423709 152.82964 " stroke="#c77660" stroke-width="4.556" stroke-opacity="1" stroke-miterlimit="10"/></g></g></g><g clip-path="url(#37567c005d)"><g clip-path="url(#16ceb35312)"><g clip-path="url(#2f9f235916)"><path stroke-linecap="round" transform="matrix(-0.863692, -0.0659225, 0.0659643, -0.86424, 471.125542, 280.891738)" fill="none" stroke-linejoin="round" d="M 244.328156 147.754317 C 244.328156 147.754317 249.603069 140.725831 250.770388 140.139605 " stroke="#c77660" stroke-width="4.556" stroke-opacity="1" stroke-miterlimit="10"/></g></g></g><path fill="#5ce1e6" d="M 307.5625 72.503906 C 306.777344 69.984375 286.375 68.332031 270.679688 78.246094 C 245.171875 94.453125 256.472656 135.363281 226.886719 152.203125 C 215.039062 158.96875 198.714844 162.273438 186.707031 162.746094 L 211.898438 183.988281 C 221.707031 182.414062 235.835938 178.558594 248.15625 167.78125 C 263.300781 154.640625 269.738281 136.625 273.503906 126.160156 C 280.957031 105.390625 278.449219 95.871094 289.042969 85.167969 C 297.988281 76.277344 308.113281 74.3125 307.5625 72.503906 Z M 307.5625 72.503906 " fill-opacity="1" fill-rule="nonzero"/><path fill="#0097b2" d="M 248.234375 167.78125 C 263.378906 154.640625 269.816406 136.625 273.582031 126.160156 C 281.039062 105.390625 278.527344 95.871094 289.121094 85.167969 C 289.589844 84.695312 289.984375 83.988281 290.613281 83.753906 C 266.753906 93.507812 273.1875 142.367188 228.691406 164.476562 C 211.113281 173.207031 192.828125 165.339844 186.707031 162.824219 L 211.898438 184.066406 C 221.785156 182.414062 235.914062 178.480469 248.234375 167.78125 Z M 248.234375 167.78125 " fill-opacity="1" fill-rule="nonzero"/><path fill="#5ce1e6" d="M 121.335938 157.710938 C 90.023438 157 75.664062 147.167969 68.285156 138.199219 C 52.824219 119.394531 60.832031 95.238281 41.445312 81.863281 C 31.402344 74.941406 17.589844 73.445312 15.628906 76.828125 C 14.058594 79.582031 21.121094 83.910156 27.242188 94.058594 C 37.210938 110.503906 31.324219 120.335938 38.386719 140.714844 C 40.976562 148.269531 45.292969 160.777344 56.59375 170.613281 C 75.898438 187.449219 102.894531 185.167969 113.722656 184.300781 C 124.082031 183.4375 133.578125 182.570312 139.152344 180.683594 C 141.269531 165.8125 134.363281 156.84375 121.335938 157.710938 Z M 121.335938 157.710938 " fill-opacity="1" fill-rule="nonzero"/><path fill="#0097b2" d="M 54.003906 150.628906 C 48.195312 139.0625 51.804688 122.855469 38.699219 109.085938 C 36.425781 106.726562 34.070312 104.839844 31.636719 103.1875 C 35.484375 114.75 32.894531 124.351562 38.464844 140.636719 C 41.054688 148.191406 45.371094 160.699219 56.671875 170.535156 C 75.976562 187.371094 102.972656 185.089844 113.804688 184.222656 C 124.160156 183.359375 133.65625 182.492188 139.230469 180.605469 C 139.699219 177.457031 139.699219 174.625 139.386719 172.027344 C 80.765625 175.175781 60.4375 163.609375 54.003906 150.628906 Z M 54.003906 150.628906 " fill-opacity="1" fill-rule="nonzero"/><path fill="#5ce1e6" d="M 140.40625 157.867188 C 129.5 158.261719 95.675781 161.09375 68.757812 187.371094 C 64.285156 191.777344 37.128906 218.289062 40.425781 251.097656 C 41.527344 262.035156 46.234375 275.804688 51.101562 275.726562 C 54.945312 275.726562 54.710938 263.371094 63.421875 244.648438 C 67.34375 236.070312 71.660156 226.867188 79.980469 218.921875 C 89.867188 209.480469 94.96875 211.917969 115.765625 200.667969 C 131.929688 192.011719 145.195312 184.617188 146.214844 173.367188 C 146.839844 166.914062 143.230469 161.328125 140.40625 157.867188 Z M 140.40625 157.867188 " fill-opacity="1" fill-rule="nonzero"/><path fill="#0097b2" d="M 117.253906 191.699219 C 117.253906 192.15625 117.199219 192.613281 117.089844 193.0625 C 116.980469 193.515625 116.816406 193.953125 116.597656 194.378906 C 116.382812 194.800781 116.117188 195.207031 115.800781 195.589844 C 115.484375 195.96875 115.128906 196.324219 114.726562 196.648438 C 114.328125 196.972656 113.890625 197.265625 113.417969 197.519531 C 112.949219 197.777344 112.449219 197.992188 111.925781 198.167969 C 111.402344 198.34375 110.863281 198.476562 110.308594 198.566406 C 109.75 198.65625 109.191406 198.699219 108.625 198.699219 C 108.054688 198.699219 107.496094 198.65625 106.9375 198.566406 C 106.382812 198.476562 105.84375 198.34375 105.320312 198.167969 C 104.796875 197.992188 104.296875 197.777344 103.828125 197.519531 C 103.355469 197.265625 102.921875 196.972656 102.519531 196.648438 C 102.117188 196.324219 101.761719 195.96875 101.445312 195.589844 C 101.128906 195.207031 100.863281 194.800781 100.648438 194.378906 C 100.429688 193.953125 100.265625 193.515625 100.15625 193.0625 C 100.046875 192.613281 99.992188 192.15625 99.992188 191.699219 C 99.992188 191.238281 100.046875 190.78125 100.15625 190.332031 C 100.265625 189.882812 100.429688 189.441406 100.648438 189.019531 C 100.863281 188.59375 101.128906 188.191406 101.445312 187.808594 C 101.761719 187.425781 102.117188 187.070312 102.519531 186.746094 C 102.921875 186.421875 103.355469 186.132812 103.828125 185.875 C 104.296875 185.621094 104.796875 185.40625 105.320312 185.230469 C 105.84375 185.054688 106.382812 184.921875 106.9375 184.832031 C 107.496094 184.742188 108.054688 184.695312 108.625 184.695312 C 109.191406 184.695312 109.75 184.742188 110.308594 184.832031 C 110.863281 184.921875 111.402344 185.054688 111.925781 185.230469 C 112.449219 185.40625 112.949219 185.621094 113.417969 185.875 C 113.890625 186.132812 114.328125 186.421875 114.726562 186.746094 C 115.128906 187.070312 115.484375 187.425781 115.800781 187.808594 C 116.117188 188.191406 116.382812 188.59375 116.597656 189.019531 C 116.816406 189.441406 116.980469 189.882812 117.089844 190.332031 C 117.199219 190.78125 117.253906 191.238281 117.253906 191.699219 Z M 117.253906 191.699219 " fill-opacity="1" fill-rule="nonzero"/><path fill="#0097b2" d="M 96.144531 204.285156 C 96.144531 204.554688 96.121094 204.820312 96.066406 205.085938 C 96.015625 205.347656 95.9375 205.605469 95.835938 205.851562 C 95.730469 206.101562 95.605469 206.335938 95.457031 206.558594 C 95.308594 206.78125 95.140625 206.988281 94.949219 207.179688 C 94.761719 207.371094 94.554688 207.539062 94.332031 207.6875 C 94.109375 207.835938 93.875 207.964844 93.625 208.066406 C 93.378906 208.167969 93.125 208.246094 92.859375 208.300781 C 92.597656 208.351562 92.332031 208.378906 92.066406 208.378906 C 91.796875 208.378906 91.53125 208.351562 91.269531 208.300781 C 91.003906 208.246094 90.75 208.167969 90.503906 208.066406 C 90.253906 207.964844 90.019531 207.835938 89.796875 207.6875 C 89.574219 207.539062 89.367188 207.371094 89.179688 207.179688 C 88.988281 206.988281 88.820312 206.78125 88.671875 206.558594 C 88.523438 206.335938 88.398438 206.101562 88.292969 205.851562 C 88.191406 205.605469 88.113281 205.347656 88.0625 205.085938 C 88.011719 204.820312 87.984375 204.554688 87.984375 204.285156 C 87.984375 204.019531 88.011719 203.75 88.0625 203.488281 C 88.113281 203.226562 88.191406 202.96875 88.292969 202.722656 C 88.398438 202.472656 88.523438 202.238281 88.671875 202.011719 C 88.820312 201.789062 88.988281 201.582031 89.179688 201.394531 C 89.367188 201.203125 89.574219 201.035156 89.796875 200.882812 C 90.019531 200.734375 90.253906 200.609375 90.503906 200.507812 C 90.75 200.402344 91.003906 200.328125 91.269531 200.273438 C 91.53125 200.222656 91.796875 200.195312 92.066406 200.195312 C 92.332031 200.195312 92.597656 200.222656 92.859375 200.273438 C 93.125 200.328125 93.378906 200.402344 93.625 200.507812 C 93.875 200.609375 94.109375 200.734375 94.332031 200.882812 C 94.554688 201.035156 94.761719 201.203125 94.949219 201.394531 C 95.140625 201.582031 95.308594 201.789062 95.457031 202.011719 C 95.605469 202.238281 95.730469 202.472656 95.835938 202.722656 C 95.9375 202.96875 96.015625 203.226562 96.066406 203.488281 C 96.121094 203.75 96.144531 204.019531 96.144531 204.285156 Z M 96.144531 204.285156 " fill-opacity="1" fill-rule="nonzero"/><path fill="#0097b2" d="M 65.226562 230.566406 C 65.226562 230.941406 65.1875 231.316406 65.117188 231.683594 C 65.042969 232.054688 64.933594 232.414062 64.789062 232.761719 C 64.644531 233.109375 64.46875 233.441406 64.261719 233.753906 C 64.050781 234.070312 63.8125 234.359375 63.546875 234.625 C 63.28125 234.890625 62.992188 235.128906 62.679688 235.339844 C 62.367188 235.550781 62.035156 235.726562 61.6875 235.871094 C 61.339844 236.015625 60.984375 236.125 60.613281 236.199219 C 60.246094 236.269531 59.871094 236.308594 59.496094 236.308594 C 59.121094 236.308594 58.746094 236.269531 58.378906 236.199219 C 58.011719 236.125 57.652344 236.015625 57.304688 235.871094 C 56.957031 235.726562 56.625 235.550781 56.3125 235.339844 C 56 235.128906 55.710938 234.890625 55.445312 234.625 C 55.179688 234.359375 54.941406 234.070312 54.734375 233.753906 C 54.523438 233.441406 54.347656 233.109375 54.203125 232.761719 C 54.058594 232.414062 53.953125 232.054688 53.878906 231.683594 C 53.804688 231.316406 53.769531 230.941406 53.769531 230.566406 C 53.769531 230.1875 53.804688 229.8125 53.878906 229.445312 C 53.953125 229.074219 54.058594 228.714844 54.203125 228.367188 C 54.347656 228.019531 54.523438 227.6875 54.734375 227.375 C 54.941406 227.058594 55.179688 226.769531 55.445312 226.503906 C 55.710938 226.238281 56 226 56.3125 225.789062 C 56.625 225.578125 56.957031 225.402344 57.304688 225.257812 C 57.652344 225.113281 58.011719 225.003906 58.378906 224.929688 C 58.746094 224.859375 59.121094 224.820312 59.496094 224.820312 C 59.871094 224.820312 60.246094 224.859375 60.613281 224.929688 C 60.984375 225.003906 61.339844 225.113281 61.6875 225.257812 C 62.035156 225.402344 62.367188 225.578125 62.679688 225.789062 C 62.992188 226 63.28125 226.238281 63.546875 226.503906 C 63.8125 226.769531 64.050781 227.058594 64.261719 227.375 C 64.46875 227.6875 64.644531 228.019531 64.789062 228.367188 C 64.933594 228.714844 65.042969 229.074219 65.117188 229.445312 C 65.1875 229.8125 65.226562 230.1875 65.226562 230.566406 Z M 65.226562 230.566406 " fill-opacity="1" fill-rule="nonzero"/><path fill="#0097b2" d="M 58.242188 248.1875 C 58.242188 248.617188 58.160156 249.027344 57.996094 249.421875 C 57.832031 249.816406 57.601562 250.167969 57.296875 250.46875 C 56.996094 250.773438 56.648438 251.003906 56.253906 251.167969 C 55.859375 251.332031 55.449219 251.414062 55.023438 251.414062 C 54.597656 251.414062 54.1875 251.332031 53.792969 251.167969 C 53.398438 251.003906 53.050781 250.773438 52.75 250.46875 C 52.445312 250.167969 52.214844 249.816406 52.050781 249.421875 C 51.886719 249.027344 51.804688 248.617188 51.804688 248.1875 C 51.804688 247.761719 51.886719 247.347656 52.050781 246.953125 C 52.214844 246.558594 52.445312 246.210938 52.75 245.90625 C 53.050781 245.605469 53.398438 245.371094 53.792969 245.207031 C 54.1875 245.042969 54.597656 244.960938 55.023438 244.960938 C 55.449219 244.960938 55.859375 245.042969 56.253906 245.207031 C 56.648438 245.371094 56.996094 245.605469 57.296875 245.90625 C 57.601562 246.210938 57.832031 246.558594 57.996094 246.953125 C 58.160156 247.347656 58.242188 247.761719 58.242188 248.1875 Z M 58.242188 248.1875 " fill-opacity="1" fill-rule="nonzero"/><path fill="#5ce1e6" d="M 165.519531 201.769531 C 171.246094 186.113281 173.917969 172.738281 175.171875 164.789062 L 145.273438 161.566406 C 128.871094 183.75 122.75 204.601562 120.160156 216.71875 C 116.472656 233.949219 112.46875 252.910156 122.277344 271.871094 C 130.363281 287.527344 144.09375 299.878906 147.941406 297.597656 C 151.628906 295.394531 141.582031 282.335938 142.054688 261.722656 C 142.523438 240.164062 154.140625 232.609375 165.519531 201.769531 Z M 165.519531 201.769531 " fill-opacity="1" fill-rule="nonzero"/><path fill="#0097b2" d="M 163.320312 198.148438 C 163.320312 198.421875 163.269531 198.683594 163.167969 198.933594 C 163.0625 199.183594 162.914062 199.402344 162.722656 199.597656 C 162.53125 199.789062 162.3125 199.9375 162.0625 200.039062 C 161.8125 200.144531 161.550781 200.195312 161.28125 200.195312 C 161.011719 200.195312 160.75 200.144531 160.5 200.039062 C 160.25 199.9375 160.03125 199.789062 159.839844 199.597656 C 159.648438 199.402344 159.5 199.183594 159.394531 198.933594 C 159.292969 198.683594 159.242188 198.421875 159.242188 198.148438 C 159.242188 197.878906 159.292969 197.617188 159.394531 197.367188 C 159.5 197.117188 159.648438 196.894531 159.839844 196.703125 C 160.03125 196.511719 160.25 196.363281 160.5 196.257812 C 160.75 196.15625 161.011719 196.105469 161.28125 196.105469 C 161.550781 196.105469 161.8125 196.15625 162.0625 196.257812 C 162.3125 196.363281 162.53125 196.511719 162.722656 196.703125 C 162.914062 196.894531 163.0625 197.117188 163.167969 197.367188 C 163.269531 197.617188 163.320312 197.878906 163.320312 198.148438 Z M 163.320312 198.148438 " fill-opacity="1" fill-rule="nonzero"/><path fill="#0097b2" d="M 160.574219 205.386719 C 160.574219 205.730469 160.542969 206.066406 160.476562 206.402344 C 160.410156 206.734375 160.3125 207.058594 160.179688 207.375 C 160.050781 207.691406 159.890625 207.988281 159.703125 208.273438 C 159.511719 208.554688 159.296875 208.820312 159.058594 209.058594 C 158.816406 209.300781 158.554688 209.515625 158.273438 209.707031 C 157.992188 209.894531 157.691406 210.054688 157.378906 210.183594 C 157.0625 210.316406 156.738281 210.414062 156.40625 210.480469 C 156.074219 210.546875 155.734375 210.582031 155.394531 210.582031 C 155.054688 210.582031 154.71875 210.546875 154.386719 210.480469 C 154.050781 210.414062 153.726562 210.316406 153.414062 210.183594 C 153.097656 210.054688 152.800781 209.894531 152.519531 209.707031 C 152.234375 209.515625 151.972656 209.300781 151.734375 209.058594 C 151.492188 208.820312 151.277344 208.554688 151.089844 208.273438 C 150.898438 207.988281 150.742188 207.691406 150.609375 207.375 C 150.480469 207.058594 150.382812 206.734375 150.316406 206.402344 C 150.25 206.066406 150.214844 205.730469 150.214844 205.386719 C 150.214844 205.046875 150.25 204.710938 150.316406 204.375 C 150.382812 204.039062 150.480469 203.714844 150.609375 203.402344 C 150.742188 203.085938 150.898438 202.785156 151.089844 202.503906 C 151.277344 202.21875 151.492188 201.957031 151.734375 201.714844 C 151.972656 201.476562 152.234375 201.257812 152.519531 201.070312 C 152.800781 200.882812 153.097656 200.722656 153.414062 200.589844 C 153.726562 200.460938 154.050781 200.363281 154.386719 200.296875 C 154.71875 200.226562 155.054688 200.195312 155.394531 200.195312 C 155.734375 200.195312 156.074219 200.226562 156.40625 200.296875 C 156.738281 200.363281 157.0625 200.460938 157.378906 200.589844 C 157.691406 200.722656 157.992188 200.882812 158.273438 201.070312 C 158.554688 201.257812 158.816406 201.476562 159.058594 201.714844 C 159.296875 201.957031 159.511719 202.21875 159.703125 202.503906 C 159.890625 202.785156 160.050781 203.085938 160.179688 203.402344 C 160.3125 203.714844 160.410156 204.039062 160.476562 204.375 C 160.542969 204.710938 160.574219 205.046875 160.574219 205.386719 Z M 160.574219 205.386719 " fill-opacity="1" fill-rule="nonzero"/><path fill="#0097b2" d="M 140.5625 270.609375 C 140.5625 270.988281 140.492188 271.347656 140.347656 271.695312 C 140.203125 272.042969 140 272.347656 139.734375 272.613281 C 139.472656 272.878906 139.164062 273.085938 138.820312 273.226562 C 138.472656 273.371094 138.113281 273.445312 137.738281 273.445312 C 137.363281 273.445312 137.003906 273.371094 136.65625 273.226562 C 136.3125 273.085938 136.003906 272.878906 135.742188 272.613281 C 135.476562 272.347656 135.269531 272.042969 135.128906 271.695312 C 134.984375 271.347656 134.914062 270.988281 134.914062 270.609375 C 134.914062 270.234375 134.984375 269.875 135.128906 269.527344 C 135.269531 269.179688 135.476562 268.875 135.742188 268.609375 C 136.003906 268.34375 136.3125 268.136719 136.65625 267.996094 C 137.003906 267.851562 137.363281 267.777344 137.738281 267.777344 C 138.113281 267.777344 138.472656 267.851562 138.820312 267.996094 C 139.164062 268.136719 139.472656 268.34375 139.734375 268.609375 C 140 268.875 140.203125 269.179688 140.347656 269.527344 C 140.492188 269.875 140.5625 270.234375 140.5625 270.609375 Z M 140.5625 270.609375 " fill-opacity="1" fill-rule="nonzero"/><path fill="#0097b2" d="M 142.683594 283.277344 C 142.683594 283.488281 142.640625 283.6875 142.5625 283.878906 C 142.484375 284.074219 142.371094 284.242188 142.222656 284.390625 C 142.074219 284.539062 141.90625 284.652344 141.714844 284.730469 C 141.519531 284.8125 141.320312 284.851562 141.113281 284.851562 C 140.90625 284.851562 140.703125 284.8125 140.511719 284.730469 C 140.320312 284.652344 140.148438 284.539062 140.003906 284.390625 C 139.855469 284.242188 139.742188 284.074219 139.664062 283.878906 C 139.582031 283.6875 139.542969 283.488281 139.542969 283.277344 C 139.542969 283.070312 139.582031 282.867188 139.664062 282.675781 C 139.742188 282.484375 139.855469 282.3125 140.003906 282.164062 C 140.148438 282.019531 140.320312 281.90625 140.511719 281.824219 C 140.703125 281.746094 140.90625 281.703125 141.113281 281.703125 C 141.320312 281.703125 141.519531 281.746094 141.714844 281.824219 C 141.90625 281.90625 142.074219 282.019531 142.222656 282.164062 C 142.371094 282.3125 142.484375 282.484375 142.5625 282.675781 C 142.640625 282.867188 142.683594 283.070312 142.683594 283.277344 Z M 142.683594 283.277344 " fill-opacity="1" fill-rule="nonzero"/><path fill="#5ce1e6" d="M 207.347656 195.632812 C 201.304688 180.210938 194.164062 168.488281 189.21875 161.09375 L 157.515625 162.902344 C 168.65625 174.703125 207.976562 240.476562 192.984375 275.648438 C 186.160156 291.617188 173.679688 298.777344 175.800781 301.6875 C 178.3125 305.230469 200.207031 300.507812 212.132812 285.402344 C 232.460938 259.4375 214.566406 213.964844 207.347656 195.632812 Z M 207.347656 195.632812 " fill-opacity="1" fill-rule="nonzero"/><path fill="#0097b2" d="M 192.59375 198.542969 C 192.59375 198.921875 192.558594 199.292969 192.484375 199.664062 C 192.410156 200.035156 192.300781 200.390625 192.15625 200.742188 C 192.011719 201.089844 191.835938 201.421875 191.628906 201.734375 C 191.417969 202.046875 191.183594 202.335938 190.914062 202.605469 C 190.648438 202.871094 190.359375 203.109375 190.046875 203.320312 C 189.734375 203.527344 189.40625 203.703125 189.058594 203.847656 C 188.710938 203.992188 188.351562 204.101562 187.984375 204.175781 C 187.613281 204.25 187.242188 204.285156 186.863281 204.285156 C 186.488281 204.285156 186.117188 204.25 185.746094 204.175781 C 185.378906 204.101562 185.019531 203.992188 184.671875 203.847656 C 184.324219 203.703125 183.996094 203.527344 183.683594 203.320312 C 183.371094 203.109375 183.078125 202.871094 182.8125 202.605469 C 182.546875 202.335938 182.308594 202.046875 182.101562 201.734375 C 181.890625 201.421875 181.714844 201.089844 181.570312 200.742188 C 181.429688 200.390625 181.320312 200.035156 181.246094 199.664062 C 181.171875 199.292969 181.136719 198.921875 181.136719 198.542969 C 181.136719 198.164062 181.171875 197.792969 181.246094 197.421875 C 181.320312 197.050781 181.429688 196.695312 181.570312 196.34375 C 181.714844 195.996094 181.890625 195.664062 182.101562 195.351562 C 182.308594 195.039062 182.546875 194.75 182.8125 194.480469 C 183.078125 194.214844 183.371094 193.976562 183.683594 193.765625 C 183.996094 193.558594 184.324219 193.382812 184.671875 193.238281 C 185.019531 193.09375 185.378906 192.984375 185.746094 192.910156 C 186.117188 192.835938 186.488281 192.800781 186.863281 192.800781 C 187.242188 192.800781 187.613281 192.835938 187.984375 192.910156 C 188.351562 192.984375 188.710938 193.09375 189.058594 193.238281 C 189.40625 193.382812 189.734375 193.558594 190.046875 193.765625 C 190.359375 193.976562 190.648438 194.214844 190.914062 194.480469 C 191.183594 194.75 191.417969 195.039062 191.628906 195.351562 C 191.835938 195.664062 192.011719 195.996094 192.15625 196.34375 C 192.300781 196.695312 192.410156 197.050781 192.484375 197.421875 C 192.558594 197.792969 192.59375 198.164062 192.59375 198.542969 Z M 192.59375 198.542969 " fill-opacity="1" fill-rule="nonzero"/><path fill="#0097b2" d="M 200.832031 219.390625 C 200.832031 219.660156 200.808594 219.925781 200.753906 220.191406 C 200.703125 220.453125 200.625 220.710938 200.523438 220.957031 C 200.421875 221.207031 200.292969 221.441406 200.144531 221.664062 C 199.996094 221.890625 199.828125 222.09375 199.636719 222.285156 C 199.449219 222.476562 199.242188 222.644531 199.019531 222.792969 C 198.796875 222.945312 198.5625 223.070312 198.316406 223.171875 C 198.066406 223.273438 197.8125 223.351562 197.550781 223.40625 C 197.285156 223.457031 197.019531 223.484375 196.753906 223.484375 C 196.484375 223.484375 196.21875 223.457031 195.957031 223.40625 C 195.695312 223.351562 195.4375 223.273438 195.191406 223.171875 C 194.945312 223.070312 194.707031 222.945312 194.484375 222.792969 C 194.261719 222.644531 194.058594 222.476562 193.867188 222.285156 C 193.679688 222.09375 193.507812 221.890625 193.359375 221.664062 C 193.210938 221.441406 193.085938 221.207031 192.984375 220.957031 C 192.878906 220.710938 192.804688 220.453125 192.75 220.191406 C 192.699219 219.925781 192.671875 219.660156 192.671875 219.390625 C 192.671875 219.125 192.699219 218.859375 192.75 218.59375 C 192.804688 218.332031 192.878906 218.074219 192.984375 217.828125 C 193.085938 217.578125 193.210938 217.34375 193.359375 217.121094 C 193.507812 216.894531 193.679688 216.6875 193.867188 216.5 C 194.058594 216.308594 194.261719 216.140625 194.484375 215.992188 C 194.707031 215.839844 194.945312 215.714844 195.191406 215.613281 C 195.4375 215.511719 195.695312 215.433594 195.957031 215.378906 C 196.21875 215.328125 196.484375 215.300781 196.753906 215.300781 C 197.019531 215.300781 197.285156 215.328125 197.550781 215.378906 C 197.8125 215.433594 198.066406 215.511719 198.316406 215.613281 C 198.5625 215.714844 198.796875 215.839844 199.019531 215.992188 C 199.242188 216.140625 199.449219 216.308594 199.636719 216.5 C 199.828125 216.6875 199.996094 216.894531 200.144531 217.121094 C 200.292969 217.34375 200.421875 217.578125 200.523438 217.828125 C 200.625 218.074219 200.703125 218.332031 200.753906 218.59375 C 200.808594 218.859375 200.832031 219.125 200.832031 219.390625 Z M 200.832031 219.390625 " fill-opacity="1" fill-rule="nonzero"/><path fill="#0097b2" d="M 206.640625 259.28125 C 206.640625 259.78125 206.566406 260.265625 206.421875 260.726562 C 206.273438 261.191406 206.0625 261.597656 205.789062 261.953125 C 205.519531 262.304688 205.203125 262.578125 204.847656 262.769531 C 204.492188 262.960938 204.121094 263.058594 203.738281 263.058594 C 203.351562 263.058594 202.980469 262.960938 202.625 262.769531 C 202.269531 262.578125 201.957031 262.304688 201.683594 261.953125 C 201.410156 261.597656 201.203125 261.191406 201.054688 260.726562 C 200.90625 260.265625 200.832031 259.78125 200.832031 259.28125 C 200.832031 258.78125 200.90625 258.300781 201.054688 257.835938 C 201.203125 257.375 201.410156 256.964844 201.683594 256.613281 C 201.957031 256.257812 202.269531 255.984375 202.625 255.792969 C 202.980469 255.601562 203.351562 255.503906 203.738281 255.503906 C 204.121094 255.503906 204.492188 255.601562 204.847656 255.792969 C 205.203125 255.984375 205.519531 256.257812 205.789062 256.613281 C 206.0625 256.964844 206.273438 257.375 206.421875 257.835938 C 206.566406 258.300781 206.640625 258.78125 206.640625 259.28125 Z M 206.640625 259.28125 " fill-opacity="1" fill-rule="nonzero"/><path fill="#0097b2" d="M 200.519531 278.164062 C 200.519531 278.5 200.457031 278.820312 200.328125 279.128906 C 200.199219 279.4375 200.019531 279.707031 199.785156 279.945312 C 199.546875 280.179688 199.277344 280.363281 198.96875 280.492188 C 198.660156 280.617188 198.339844 280.683594 198.007812 280.683594 C 197.675781 280.683594 197.355469 280.617188 197.046875 280.492188 C 196.738281 280.363281 196.46875 280.179688 196.234375 279.945312 C 195.996094 279.707031 195.816406 279.4375 195.6875 279.128906 C 195.5625 278.820312 195.496094 278.5 195.496094 278.164062 C 195.496094 277.832031 195.5625 277.507812 195.6875 277.199219 C 195.816406 276.890625 195.996094 276.621094 196.234375 276.382812 C 196.46875 276.148438 196.738281 275.964844 197.046875 275.839844 C 197.355469 275.710938 197.675781 275.648438 198.007812 275.648438 C 198.339844 275.648438 198.660156 275.710938 198.96875 275.839844 C 199.277344 275.964844 199.546875 276.148438 199.785156 276.382812 C 200.019531 276.621094 200.199219 276.890625 200.328125 277.199219 C 200.457031 277.507812 200.519531 277.832031 200.519531 278.164062 Z M 200.519531 278.164062 " fill-opacity="1" fill-rule="nonzero"/><path fill="#5ce1e6" d="M 272.328125 217.898438 C 248.703125 189.257812 218.960938 173.207031 196.910156 164.238281 L 178.9375 157.628906 C 184.355469 171.636719 191.101562 182.097656 196.28125 189.101562 C 202.480469 197.441406 212.210938 210.5 229.164062 220.179688 C 243.839844 228.519531 245.878906 224.113281 254.984375 231.667969 C 266.285156 241.027344 272.246094 255.664062 277.503906 268.328125 C 282.292969 279.972656 283.625 286.898438 286.375 286.820312 C 289.828125 286.738281 292.808594 275.648438 293.359375 267.226562 C 293.828125 259.359375 292.964844 242.996094 272.328125 217.898438 Z M 272.328125 217.898438 " fill-opacity="1" fill-rule="nonzero"/><path fill="#0097b2" d="M 227.203125 197.914062 C 227.203125 198.332031 227.160156 198.746094 227.078125 199.15625 C 227 199.566406 226.878906 199.964844 226.71875 200.351562 C 226.558594 200.738281 226.363281 201.105469 226.128906 201.453125 C 225.898438 201.800781 225.636719 202.125 225.339844 202.417969 C 225.046875 202.714844 224.722656 202.980469 224.375 203.210938 C 224.03125 203.445312 223.664062 203.640625 223.277344 203.800781 C 222.890625 203.960938 222.496094 204.082031 222.085938 204.164062 C 221.675781 204.246094 221.261719 204.285156 220.84375 204.285156 C 220.429688 204.285156 220.015625 204.246094 219.605469 204.164062 C 219.195312 204.082031 218.796875 203.960938 218.414062 203.800781 C 218.027344 203.640625 217.660156 203.445312 217.3125 203.210938 C 216.964844 202.980469 216.644531 202.714844 216.351562 202.417969 C 216.054688 202.125 215.792969 201.800781 215.558594 201.453125 C 215.328125 201.105469 215.132812 200.738281 214.972656 200.351562 C 214.8125 199.964844 214.691406 199.566406 214.609375 199.15625 C 214.53125 198.746094 214.488281 198.332031 214.488281 197.914062 C 214.488281 197.496094 214.53125 197.082031 214.609375 196.671875 C 214.691406 196.261719 214.8125 195.863281 214.972656 195.476562 C 215.132812 195.089844 215.328125 194.722656 215.558594 194.371094 C 215.792969 194.023438 216.054688 193.703125 216.351562 193.40625 C 216.644531 193.113281 216.964844 192.847656 217.3125 192.613281 C 217.660156 192.382812 218.027344 192.1875 218.414062 192.027344 C 218.796875 191.867188 219.195312 191.746094 219.605469 191.664062 C 220.015625 191.582031 220.429688 191.539062 220.84375 191.539062 C 221.261719 191.539062 221.675781 191.582031 222.085938 191.664062 C 222.496094 191.746094 222.890625 191.867188 223.277344 192.027344 C 223.664062 192.1875 224.03125 192.382812 224.375 192.613281 C 224.722656 192.847656 225.046875 193.113281 225.339844 193.40625 C 225.636719 193.703125 225.898438 194.023438 226.128906 194.371094 C 226.363281 194.722656 226.558594 195.089844 226.71875 195.476562 C 226.878906 195.863281 227 196.261719 227.078125 196.671875 C 227.160156 197.082031 227.203125 197.496094 227.203125 197.914062 Z M 227.203125 197.914062 " fill-opacity="1" fill-rule="nonzero"/><path fill="#0097b2" d="M 241.015625 211.289062 C 241.015625 211.550781 240.980469 211.8125 240.910156 212.070312 C 240.839844 212.328125 240.734375 212.582031 240.597656 212.824219 C 240.457031 213.066406 240.289062 213.300781 240.089844 213.519531 C 239.886719 213.738281 239.660156 213.941406 239.40625 214.125 C 239.148438 214.3125 238.871094 214.480469 238.574219 214.625 C 238.273438 214.769531 237.957031 214.894531 237.621094 214.996094 C 237.289062 215.097656 236.945312 215.171875 236.59375 215.222656 C 236.238281 215.277344 235.882812 215.300781 235.519531 215.300781 C 235.160156 215.300781 234.800781 215.277344 234.449219 215.222656 C 234.09375 215.171875 233.75 215.097656 233.417969 214.996094 C 233.085938 214.894531 232.769531 214.769531 232.46875 214.625 C 232.167969 214.480469 231.890625 214.3125 231.636719 214.125 C 231.382812 213.941406 231.152344 213.738281 230.953125 213.519531 C 230.753906 213.300781 230.582031 213.066406 230.445312 212.824219 C 230.308594 212.582031 230.203125 212.328125 230.132812 212.070312 C 230.0625 211.8125 230.027344 211.550781 230.027344 211.289062 C 230.027344 211.023438 230.0625 210.765625 230.132812 210.507812 C 230.203125 210.246094 230.308594 209.996094 230.445312 209.753906 C 230.582031 209.507812 230.753906 209.277344 230.953125 209.058594 C 231.152344 208.839844 231.382812 208.636719 231.636719 208.453125 C 231.890625 208.265625 232.167969 208.097656 232.46875 207.953125 C 232.769531 207.804688 233.085938 207.683594 233.417969 207.582031 C 233.75 207.480469 234.09375 207.40625 234.449219 207.351562 C 234.800781 207.300781 235.160156 207.277344 235.519531 207.277344 C 235.882812 207.277344 236.238281 207.300781 236.59375 207.351562 C 236.945312 207.40625 237.289062 207.480469 237.621094 207.582031 C 237.957031 207.683594 238.273438 207.804688 238.574219 207.953125 C 238.871094 208.097656 239.148438 208.265625 239.40625 208.453125 C 239.660156 208.636719 239.886719 208.839844 240.089844 209.058594 C 240.289062 209.277344 240.457031 209.507812 240.597656 209.753906 C 240.734375 209.996094 240.839844 210.246094 240.910156 210.507812 C 240.980469 210.765625 241.015625 211.023438 241.015625 211.289062 Z M 241.015625 211.289062 " fill-opacity="1" fill-rule="nonzero"/><path fill="#0097b2" d="M 255.375 217.269531 C 255.375 217.738281 255.285156 218.1875 255.105469 218.621094 C 254.925781 219.058594 254.671875 219.441406 254.339844 219.773438 C 254.007812 220.105469 253.628906 220.359375 253.195312 220.539062 C 252.761719 220.71875 252.3125 220.808594 251.84375 220.808594 C 251.375 220.808594 250.925781 220.71875 250.492188 220.539062 C 250.058594 220.359375 249.675781 220.105469 249.347656 219.773438 C 249.015625 219.441406 248.761719 219.058594 248.582031 218.621094 C 248.402344 218.1875 248.3125 217.738281 248.3125 217.269531 C 248.3125 216.796875 248.402344 216.347656 248.582031 215.914062 C 248.761719 215.480469 249.015625 215.097656 249.347656 214.765625 C 249.675781 214.433594 250.058594 214.175781 250.492188 213.996094 C 250.925781 213.816406 251.375 213.726562 251.84375 213.726562 C 252.3125 213.726562 252.761719 213.816406 253.195312 213.996094 C 253.628906 214.175781 254.007812 214.433594 254.339844 214.765625 C 254.671875 215.097656 254.925781 215.480469 255.105469 215.914062 C 255.285156 216.347656 255.375 216.796875 255.375 217.269531 Z M 255.375 217.269531 " fill-opacity="1" fill-rule="nonzero"/><path fill="#0097b2" d="M 270.050781 233.476562 C 270.050781 233.964844 269.957031 234.4375 269.769531 234.890625 C 269.582031 235.34375 269.316406 235.742188 268.96875 236.089844 C 268.625 236.4375 268.226562 236.703125 267.773438 236.890625 C 267.320312 237.078125 266.851562 237.171875 266.363281 237.171875 C 265.871094 237.171875 265.402344 237.078125 264.949219 236.890625 C 264.5 236.703125 264.101562 236.4375 263.753906 236.089844 C 263.40625 235.742188 263.140625 235.34375 262.953125 234.890625 C 262.765625 234.4375 262.671875 233.964844 262.671875 233.476562 C 262.671875 232.984375 262.765625 232.511719 262.953125 232.058594 C 263.140625 231.609375 263.40625 231.207031 263.753906 230.859375 C 264.101562 230.515625 264.5 230.246094 264.949219 230.058594 C 265.402344 229.871094 265.871094 229.777344 266.363281 229.777344 C 266.851562 229.777344 267.320312 229.871094 267.773438 230.058594 C 268.226562 230.246094 268.625 230.515625 268.96875 230.859375 C 269.316406 231.207031 269.582031 231.609375 269.769531 232.058594 C 269.957031 232.511719 270.050781 232.984375 270.050781 233.476562 Z M 270.050781 233.476562 " fill-opacity="1" fill-rule="nonzero"/><path fill="#5ce1e6" d="M 229.007812 90.519531 C 228.300781 86.585938 221.316406 50.628906 188.828125 39.613281 C 163.242188 30.960938 137.109375 42.917969 123.0625 59.128906 C 105.011719 79.898438 107.601562 106.410156 108.859375 118.605469 C 110.585938 136.308594 116.941406 149.84375 121.414062 157.710938 C 145.035156 169.039062 170.542969 169.195312 196.988281 164.238281 C 221.160156 146.457031 233.871094 117.820312 229.007812 90.519531 Z M 229.007812 90.519531 " fill-opacity="1" fill-rule="nonzero"/><path fill="#1f110c" d="M 146.527344 111.527344 C 146.527344 112.152344 146.46875 112.769531 146.34375 113.382812 C 146.222656 113.996094 146.042969 114.589844 145.804688 115.167969 C 145.566406 115.746094 145.273438 116.296875 144.925781 116.816406 C 144.582031 117.335938 144.1875 117.816406 143.746094 118.257812 C 143.304688 118.699219 142.824219 119.09375 142.308594 119.441406 C 141.789062 119.789062 141.242188 120.082031 140.664062 120.320312 C 140.089844 120.558594 139.496094 120.742188 138.882812 120.863281 C 138.273438 120.984375 137.65625 121.046875 137.03125 121.046875 C 136.410156 121.046875 135.789062 120.984375 135.179688 120.863281 C 134.566406 120.742188 133.972656 120.558594 133.398438 120.320312 C 132.820312 120.082031 132.273438 119.789062 131.757812 119.441406 C 131.238281 119.09375 130.757812 118.699219 130.316406 118.257812 C 129.875 117.816406 129.484375 117.335938 129.136719 116.816406 C 128.789062 116.296875 128.496094 115.746094 128.257812 115.167969 C 128.019531 114.589844 127.839844 113.996094 127.71875 113.382812 C 127.597656 112.769531 127.535156 112.152344 127.535156 111.527344 C 127.535156 110.902344 127.597656 110.28125 127.71875 109.667969 C 127.839844 109.054688 128.019531 108.460938 128.257812 107.882812 C 128.496094 107.304688 128.789062 106.757812 129.136719 106.238281 C 129.484375 105.71875 129.875 105.238281 130.316406 104.792969 C 130.757812 104.351562 131.238281 103.957031 131.757812 103.609375 C 132.273438 103.261719 132.820312 102.96875 133.398438 102.730469 C 133.972656 102.492188 134.566406 102.3125 135.179688 102.1875 C 135.789062 102.066406 136.410156 102.007812 137.03125 102.007812 C 137.65625 102.007812 138.273438 102.066406 138.882812 102.1875 C 139.496094 102.3125 140.089844 102.492188 140.664062 102.730469 C 141.242188 102.96875 141.789062 103.261719 142.308594 103.609375 C 142.824219 103.957031 143.304688 104.351562 143.746094 104.792969 C 144.1875 105.238281 144.582031 105.71875 144.925781 106.238281 C 145.273438 106.757812 145.566406 107.304688 145.804688 107.882812 C 146.042969 108.460938 146.222656 109.054688 146.34375 109.667969 C 146.46875 110.28125 146.527344 110.902344 146.527344 111.527344 Z M 146.527344 111.527344 " fill-opacity="1" fill-rule="nonzero"/><path fill="#ffffff" d="M 134.519531 109.324219 C 134.519531 109.625 134.464844 109.917969 134.347656 110.195312 C 134.230469 110.476562 134.066406 110.722656 133.855469 110.9375 C 133.640625 111.148438 133.394531 111.316406 133.117188 111.429688 C 132.835938 111.546875 132.546875 111.605469 132.246094 111.605469 C 131.941406 111.605469 131.652344 111.546875 131.375 111.429688 C 131.09375 111.316406 130.847656 111.148438 130.636719 110.9375 C 130.421875 110.722656 130.257812 110.476562 130.140625 110.195312 C 130.027344 109.917969 129.96875 109.625 129.96875 109.324219 C 129.96875 109.019531 130.027344 108.730469 130.140625 108.449219 C 130.257812 108.171875 130.421875 107.921875 130.636719 107.710938 C 130.847656 107.496094 131.09375 107.332031 131.375 107.214844 C 131.652344 107.097656 131.941406 107.042969 132.246094 107.042969 C 132.546875 107.042969 132.835938 107.097656 133.117188 107.214844 C 133.394531 107.332031 133.640625 107.496094 133.855469 107.710938 C 134.066406 107.921875 134.230469 108.171875 134.347656 108.449219 C 134.464844 108.730469 134.519531 109.019531 134.519531 109.324219 Z M 134.519531 109.324219 " fill-opacity="1" fill-rule="nonzero"/><path fill="#1f110c" d="M 194.085938 115.617188 C 194.085938 116.242188 194.023438 116.863281 193.902344 117.472656 C 193.78125 118.085938 193.601562 118.683594 193.363281 119.261719 C 193.125 119.835938 192.832031 120.386719 192.484375 120.90625 C 192.136719 121.425781 191.746094 121.90625 191.304688 122.347656 C 190.863281 122.789062 190.382812 123.183594 189.863281 123.53125 C 189.347656 123.878906 188.800781 124.171875 188.222656 124.414062 C 187.648438 124.652344 187.054688 124.832031 186.441406 124.953125 C 185.828125 125.074219 185.210938 125.136719 184.589844 125.136719 C 183.964844 125.136719 183.347656 125.074219 182.738281 124.953125 C 182.125 124.832031 181.53125 124.652344 180.957031 124.414062 C 180.378906 124.171875 179.832031 123.878906 179.3125 123.53125 C 178.796875 123.183594 178.316406 122.789062 177.875 122.347656 C 177.433594 121.90625 177.039062 121.425781 176.695312 120.90625 C 176.347656 120.386719 176.054688 119.835938 175.816406 119.261719 C 175.578125 118.683594 175.398438 118.085938 175.277344 117.472656 C 175.152344 116.863281 175.09375 116.242188 175.09375 115.617188 C 175.09375 114.992188 175.152344 114.371094 175.277344 113.761719 C 175.398438 113.148438 175.578125 112.550781 175.816406 111.972656 C 176.054688 111.398438 176.347656 110.847656 176.695312 110.328125 C 177.039062 109.808594 177.433594 109.328125 177.875 108.886719 C 178.316406 108.445312 178.796875 108.050781 179.3125 107.703125 C 179.832031 107.355469 180.378906 107.0625 180.957031 106.820312 C 181.53125 106.582031 182.125 106.402344 182.738281 106.28125 C 183.347656 106.160156 183.964844 106.097656 184.589844 106.097656 C 185.210938 106.097656 185.828125 106.160156 186.441406 106.28125 C 187.054688 106.402344 187.648438 106.582031 188.222656 106.820312 C 188.800781 107.0625 189.347656 107.355469 189.863281 107.703125 C 190.382812 108.050781 190.863281 108.445312 191.304688 108.886719 C 191.746094 109.328125 192.136719 109.808594 192.484375 110.328125 C 192.832031 110.847656 193.125 111.398438 193.363281 111.972656 C 193.601562 112.550781 193.78125 113.148438 193.902344 113.761719 C 194.023438 114.371094 194.085938 114.992188 194.085938 115.617188 Z M 194.085938 115.617188 " fill-opacity="1" fill-rule="nonzero"/><path fill="#ffffff" d="M 182.078125 113.414062 C 182.078125 113.714844 182.019531 114.007812 181.90625 114.289062 C 181.789062 114.566406 181.625 114.8125 181.410156 115.027344 C 181.199219 115.242188 180.953125 115.40625 180.671875 115.523438 C 180.394531 115.636719 180.105469 115.695312 179.800781 115.695312 C 179.5 115.695312 179.210938 115.636719 178.929688 115.523438 C 178.652344 115.40625 178.40625 115.242188 178.191406 115.027344 C 177.980469 114.8125 177.816406 114.566406 177.699219 114.289062 C 177.582031 114.007812 177.527344 113.714844 177.527344 113.414062 C 177.527344 113.113281 177.582031 112.820312 177.699219 112.542969 C 177.816406 112.261719 177.980469 112.015625 178.191406 111.800781 C 178.40625 111.585938 178.652344 111.421875 178.929688 111.304688 C 179.210938 111.191406 179.5 111.132812 179.800781 111.132812 C 180.105469 111.132812 180.394531 111.191406 180.671875 111.304688 C 180.953125 111.421875 181.199219 111.585938 181.410156 111.800781 C 181.625 112.015625 181.789062 112.261719 181.90625 112.542969 C 182.019531 112.820312 182.078125 113.113281 182.078125 113.414062 Z M 182.078125 113.414062 " fill-opacity="1" fill-rule="nonzero"/><path fill="#1f110c" d="M 145.113281 127.734375 C 147.703125 129.148438 151.707031 130.878906 156.808594 131.511719 C 164.734375 132.53125 171.089844 130.566406 174.230469 129.308594 C 174.152344 137.648438 167.089844 144.253906 159.003906 143.941406 C 150.84375 143.625 144.332031 136.152344 145.113281 127.734375 Z M 145.113281 127.734375 " fill-opacity="1" fill-rule="nonzero"/><path fill="#ffacec" d="M 163.242188 134.34375 C 159.554688 135.445312 153.984375 138.039062 152.648438 142.054688 C 154.609375 143.152344 156.730469 143.785156 159.082031 143.863281 C 165.988281 144.175781 172.03125 139.378906 173.757812 132.847656 C 170.226562 132.847656 166.617188 133.320312 163.242188 134.34375 Z M 163.242188 134.34375 " fill-opacity="1" fill-rule="nonzero"/><path fill="#ffacec" d="M 125.261719 127.261719 C 125.261719 127.746094 125.203125 128.226562 125.082031 128.703125 C 124.964844 129.179688 124.792969 129.644531 124.5625 130.089844 C 124.332031 130.539062 124.046875 130.964844 123.714844 131.371094 C 123.378906 131.773438 122.996094 132.148438 122.570312 132.492188 C 122.144531 132.835938 121.679688 133.140625 121.179688 133.410156 C 120.679688 133.679688 120.148438 133.910156 119.59375 134.09375 C 119.035156 134.28125 118.460938 134.421875 117.871094 134.515625 C 117.277344 134.609375 116.679688 134.65625 116.078125 134.65625 C 115.476562 134.65625 114.878906 134.609375 114.289062 134.515625 C 113.695312 134.421875 113.121094 134.28125 112.566406 134.09375 C 112.007812 133.910156 111.480469 133.679688 110.976562 133.410156 C 110.476562 133.140625 110.011719 132.835938 109.585938 132.492188 C 109.160156 132.148438 108.777344 131.773438 108.445312 131.371094 C 108.109375 130.964844 107.828125 130.539062 107.59375 130.089844 C 107.363281 129.644531 107.191406 129.179688 107.074219 128.703125 C 106.957031 128.226562 106.898438 127.746094 106.898438 127.261719 C 106.898438 126.777344 106.957031 126.292969 107.074219 125.820312 C 107.191406 125.34375 107.363281 124.878906 107.59375 124.429688 C 107.828125 123.984375 108.109375 123.554688 108.445312 123.152344 C 108.777344 122.75 109.160156 122.375 109.585938 122.03125 C 110.011719 121.6875 110.476562 121.382812 110.976562 121.113281 C 111.480469 120.84375 112.007812 120.613281 112.566406 120.429688 C 113.121094 120.242188 113.695312 120.101562 114.289062 120.007812 C 114.878906 119.914062 115.476562 119.867188 116.078125 119.867188 C 116.679688 119.867188 117.277344 119.914062 117.871094 120.007812 C 118.460938 120.101562 119.035156 120.242188 119.59375 120.429688 C 120.148438 120.613281 120.679688 120.84375 121.179688 121.113281 C 121.679688 121.382812 122.144531 121.6875 122.570312 122.03125 C 122.996094 122.375 123.378906 122.75 123.714844 123.152344 C 124.046875 123.554688 124.332031 123.984375 124.5625 124.429688 C 124.792969 124.878906 124.964844 125.34375 125.082031 125.820312 C 125.203125 126.292969 125.261719 126.777344 125.261719 127.261719 Z M 125.261719 127.261719 " fill-opacity="1" fill-rule="nonzero"/><path fill="#ffacec" d="M 210.015625 134.65625 C 210.015625 135.144531 209.957031 135.625 209.839844 136.101562 C 209.722656 136.574219 209.546875 137.039062 209.316406 137.488281 C 209.085938 137.9375 208.804688 138.363281 208.46875 138.765625 C 208.132812 139.167969 207.753906 139.542969 207.328125 139.886719 C 206.898438 140.230469 206.4375 140.535156 205.933594 140.804688 C 205.433594 141.074219 204.90625 141.304688 204.347656 141.488281 C 203.789062 141.675781 203.214844 141.816406 202.625 141.910156 C 202.035156 142.003906 201.4375 142.054688 200.832031 142.054688 C 200.230469 142.054688 199.632812 142.003906 199.042969 141.910156 C 198.449219 141.816406 197.875 141.675781 197.320312 141.488281 C 196.761719 141.304688 196.234375 141.074219 195.734375 140.804688 C 195.230469 140.535156 194.765625 140.230469 194.339844 139.886719 C 193.914062 139.542969 193.535156 139.167969 193.199219 138.765625 C 192.863281 138.363281 192.582031 137.9375 192.351562 137.488281 C 192.121094 137.039062 191.945312 136.574219 191.828125 136.101562 C 191.710938 135.625 191.652344 135.144531 191.652344 134.65625 C 191.652344 134.171875 191.710938 133.691406 191.828125 133.214844 C 191.945312 132.738281 192.121094 132.277344 192.351562 131.828125 C 192.582031 131.378906 192.863281 130.953125 193.199219 130.546875 C 193.535156 130.144531 193.914062 129.769531 194.339844 129.425781 C 194.765625 129.085938 195.230469 128.777344 195.734375 128.507812 C 196.234375 128.238281 196.761719 128.011719 197.320312 127.824219 C 197.875 127.636719 198.449219 127.5 199.042969 127.402344 C 199.632812 127.308594 200.230469 127.261719 200.832031 127.261719 C 201.4375 127.261719 202.035156 127.308594 202.625 127.402344 C 203.214844 127.5 203.789062 127.636719 204.347656 127.824219 C 204.90625 128.011719 205.433594 128.238281 205.933594 128.507812 C 206.4375 128.777344 206.898438 129.085938 207.328125 129.425781 C 207.753906 129.769531 208.132812 130.144531 208.46875 130.546875 C 208.804688 130.953125 209.085938 131.378906 209.316406 131.828125 C 209.546875 132.277344 209.722656 132.738281 209.839844 133.214844 C 209.957031 133.691406 210.015625 134.171875 210.015625 134.65625 Z M 210.015625 134.65625 " fill-opacity="1" fill-rule="nonzero"/><g clip-path="url(#c28f86506b)"><g clip-path="url(#e2e9c10c0a)"><g clip-path="url(#4a66f21fa9)"><path fill="#004aad" d="M 360.820312 23.367188 L 367.195312 26.121094 L 357.402344 48.789062 L 351.027344 46.035156 Z M 360.820312 23.367188 " fill-opacity="1" fill-rule="nonzero"/></g></g></g><g clip-path="url(#79376e7566)"><g clip-path="url(#0a30d27611)"><g clip-path="url(#1b31c31cb8)"><path fill="#004aad" d="M 358.378906 5.039062 L 365.347656 4.835938 L 366.195312 33.863281 L 359.230469 34.066406 Z M 358.378906 5.039062 " fill-opacity="1" fill-rule="nonzero"/></g></g></g><g fill="#004aad" fill-opacity="1"><g transform="translate(3.253337, 370.98186)"><g><path d="M 12.820312 -66.332031 C 16.742188 -66.332031 20.664062 -70.253906 20.664062 -74.175781 C 20.664062 -78.199219 16.742188 -82.121094 12.820312 -82.121094 C 8.796875 -82.121094 4.875 -78.199219 4.875 -74.175781 C 4.875 -70.253906 8.796875 -66.332031 12.820312 -66.332031 Z M 7.097656 0 L 19.285156 0 L 19.285156 -57.644531 L 13.246094 -57.644531 L 13.246094 -57.75 L 7.097656 -56.054688 Z M 7.097656 0 "/></g></g><g transform="translate(28.790564, 370.98186)"><g><path d="M 2.753906 0 L 14.941406 0 L 14.941406 -84.136719 L 8.902344 -84.136719 L 8.902344 -84.242188 C 6.992188 -83.816406 3.074219 -82.757812 1.164062 -82.226562 L 1.164062 -81.699219 L 1.484375 -81.699219 C 2.121094 -81.484375 2.753906 -79.050781 2.753906 -76.613281 Z M 2.753906 0 "/></g></g></g><g fill="#004aad" fill-opacity="1"><g transform="translate(48.39383, 370.98186)"><g><path d="M 19.390625 1.058594 C 26.597656 1.058594 36.132812 -5.828125 39.738281 -13.351562 L 39.738281 0 L 45.777344 0 L 45.777344 0.105469 L 51.921875 -1.589844 L 51.921875 -57.644531 L 39.738281 -57.644531 L 39.738281 -14.730469 C 37.300781 -10.914062 30.625 -7.417969 25.113281 -7.417969 C 19.816406 -7.417969 14.515625 -12.503906 14.515625 -17.695312 L 14.515625 -57.644531 L 2.332031 -57.644531 L 2.332031 -17.695312 C 2.332031 -8.265625 10.808594 1.058594 19.390625 1.058594 Z M 19.390625 1.058594 "/></g></g><g transform="translate(104.448575, 370.98186)"><g><path d="M 6.570312 -55.417969 L 7.207031 -57.644531 L 7.097656 -57.644531 L 6.675781 -55.949219 L 6.570312 -55.738281 Z M 4.34375 0.210938 L 48.425781 0 L 48.425781 -2.121094 L 49.167969 -2.121094 L 50.015625 -9.324219 L 48.847656 -9.324219 L 48.425781 -8.582031 C 47.472656 -6.570312 42.914062 -4.449219 38.675781 -3.921875 L 18.96875 -3.285156 L 48.957031 -54.675781 L 48.957031 -57.539062 L 7.949219 -57.539062 L 7.949219 -55.417969 L 6.675781 -55.417969 L 4.769531 -48.214844 L 5.933594 -48.214844 L 6.464844 -48.957031 C 7.734375 -50.96875 12.925781 -52.980469 17.378906 -53.40625 L 34.648438 -54.042969 L 4.34375 -2.648438 Z M 4.34375 0.210938 "/></g></g><g transform="translate(157.642302, 370.98186)"><g><path d="M 27.339844 1.058594 C 35.074219 1.058594 43.550781 -6.464844 44.292969 -14.199219 L 42.703125 -14.410156 C 42.171875 -9.535156 36.453125 -4.664062 31.046875 -4.664062 C 26.597656 -4.664062 22.253906 -10.171875 22.253906 -18.753906 L 22.570312 -51.179688 L 40.054688 -51.179688 L 40.054688 -57.644531 L 22.570312 -57.644531 L 22.570312 -71.527344 L 21.722656 -71.527344 L 3.496094 -52.238281 L 3.496094 -51.179688 L 10.382812 -51.179688 L 10.382812 -21.511719 C 10.382812 -7.839844 18.753906 1.058594 27.339844 1.058594 Z M 27.339844 1.058594 "/></g></g><g transform="translate(202.994723, 370.98186)"><g><path d="M 2.859375 0 L 15.046875 0 L 15.046875 -43.65625 C 18.015625 -48.53125 23.417969 -52.980469 26.808594 -52.980469 C 29.5625 -52.980469 32.320312 -51.179688 32.320312 -49.273438 C 32.320312 -45.671875 35.921875 -42.066406 39.523438 -42.066406 C 43.128906 -42.066406 46.625 -45.671875 46.625 -49.273438 C 46.625 -54.042969 39.628906 -58.703125 32.425781 -58.703125 C 27.125 -58.703125 18.863281 -52.347656 14.941406 -45.5625 L 14.941406 -57.644531 L 8.902344 -57.644531 L 8.902344 -57.75 C 6.992188 -57.328125 3.074219 -56.265625 1.164062 -55.738281 L 1.273438 -55.207031 L 1.589844 -55.207031 C 2.226562 -54.996094 2.859375 -52.558594 2.859375 -50.121094 Z M 2.859375 0 "/></g></g></g><g fill="#004aad" fill-opacity="1"><g transform="translate(250.678343, 370.98186)"><g><path d="M 24.265625 -61.140625 L 39.628906 -73.644531 C 42.808594 -76.292969 45.882812 -79.261719 45.882812 -79.898438 C 45.882812 -82.652344 42.597656 -86.042969 39.84375 -86.042969 C 39.207031 -86.042969 36.453125 -82.652344 34.015625 -79.15625 L 22.78125 -62.730469 Z M 34.332031 1.058594 C 49.273438 1.058594 63.894531 -13.773438 63.894531 -28.820312 C 63.894531 -43.867188 49.273438 -58.703125 34.332031 -58.703125 C 19.390625 -58.703125 4.769531 -43.867188 4.769531 -28.820312 C 4.769531 -13.773438 19.390625 1.058594 34.332031 1.058594 Z M 34.332031 -0.105469 C 26.171875 -0.105469 18.226562 -14.304688 18.226562 -28.820312 C 18.226562 -43.339844 26.171875 -57.539062 34.332031 -57.539062 C 42.492188 -57.539062 50.4375 -43.339844 50.4375 -28.820312 C 50.4375 -14.304688 42.492188 -0.105469 34.332031 -0.105469 Z M 34.332031 -0.105469 "/></g></g></g></svg>