<?xml version="1.0" standalone="no"?>
<!DOCTYPE svg PUBLIC "-//W3C//DTD SVG 20010904//EN"
 "http://www.w3.org/TR/2001/REC-SVG-20010904/DTD/svg10.dtd">
<svg version="1.0" xmlns="http://www.w3.org/2000/svg"
 width="561.000000pt" height="903.000000pt" viewBox="0 0 561.000000 903.000000"
 preserveAspectRatio="xMidYMid meet">
<metadata>
Created by potrace 1.16, written by Peter Selinger 2001-2019
</metadata>
<g transform="translate(0.000000,903.000000) scale(0.100000,-0.100000)"
fill="#000000" stroke="none">
<path d="M1396 9003 c-3 -10 -316 -1573 -695 -3473 l-691 -3455 -2 -1015 -3
-1015 699 3 c385 1 701 4 703 5 2 2 165 703 363 1558 199 855 372 1602 386
1662 l26 107 544 0 c427 0 546 -3 549 -12 2 -7 103 -755 223 -1661 121 -906
221 -1650 224 -1652 6 -7 1870 -6 1876 0 4 3 -1446 8180 -1575 8883 l-15 82
-1303 0 c-1233 0 -1304 -1 -1309 -17z m1879 -665 c4 -14 365 -3044 365 -3065
0 -10 -147 -13 -703 -13 l-703 0 153 1533 c84 842 152 1538 153 1545 0 9 80
12 365 12 284 0 367 -3 370 -12z"/>
</g>
</svg>
